<mxfile host="app.diagrams.net" modified="2022-05-08T09:39:17.853Z" agent="5.0 (Windows NT 10.0; Win64; x64) AppleWebKit/537.36 (KHTML, like Gecko) Chrome/101.0.4951.54 Safari/537.36" etag="Ck9K4SOz23w_DImS3HDa" version="18.0.2" type="github">
  <diagram id="1jlicjPxqtY3tlyGLZYs" name="Page-1">
    <mxGraphModel dx="1863" dy="535" grid="1" gridSize="10" guides="1" tooltips="1" connect="1" arrows="1" fold="1" page="1" pageScale="1" pageWidth="850" pageHeight="1100" math="0" shadow="0">
      <root>
        <mxCell id="0" />
        <mxCell id="1" parent="0" />
        <mxCell id="7iEGw0b0Vgs6ElfTRchU-4" value="" style="shape=image;verticalLabelPosition=bottom;labelBackgroundColor=default;verticalAlign=top;aspect=fixed;imageAspect=0;image=data:image/png,iVBORw0KGgoAAAANSUhEUgAAA1gAAAFyCAYAAADoN3vRAAAAAXNSR0IArs4c6QAAAARnQU1BAACxjwv8YQUAAAAJcEhZcwAADsMAAA7DAcdvqGQAAH2MSURBVHhe7d0HeFRFFwbgk7LpvRcSekd67yAqHayACiKoKCCKCHZFsRdQLIii+NtARVCagiCC0nvvNaT33rP/PWdnQwhJSMim7vc+zziz924KG9T9MjNnLIhIrzUAAAAAAAAoJ0vVAwAAAAAAQDkhYAEAAAAAAJgIAhYAAAAAAICJIGABAAAAAACYCAIWAAAAAACAiSBgAQAAAAAAmAgCFgAAAAAAgIkgYAEAAAAAAJgIAhYAAAAAAICJIGABAAAAAACYCAIWAAAAAACAiSBgAQAAAAAAmAgCFgAAAAAAgIkgYAEAAAAAAJgIAhYAAAAAAICJIGABAAAAAACYCAIWAAAAAACAiSBgAQAAAAAAmAgCFgAAAAAAgIkgYAEAAAAAAJgIAhYAAAAAAICJIGABAAAAAACYCAIWAAAAAACAiSBgAQAAAAAAmAgCFgAAAAAAgIkgYAEAAAAAAJgIAhYAAAAAAICJIGABAAAUIaBNa7K2tVWPAAAASgcBCwAAoBAOV08d2EvT9++hej26q6sAAADXZ6E1vWEIAAAAjGeuHln/BzXo3User5g6jWydncnazo5yMjMpV2sHly2nhEuX5D4AAIARAhYAAEAxRn40j3pOm6oeXS3y+AlaPHwkxZw5q64AAAAgYAEAAJSo04MPUFDHjpSRmEjZGRkyu1Wvezdq2LePhKuPOnWl9IQE9WwAADB3CFjV3D0OznQqJ4sOZGWqKwAAUNV0Dg40cdVv1Kh/P9r73fe0ZNyD6g4AAJg7kxa5eNbFg7b6BlN3W3t1BcrjJp0tfebhS++5+agrAABQHWSnpdHvTz4l4w5j76fOE8bLGAAAwKQB6y4HZ2qqs6FFHn7UyNpGXYUb5WjJE4xEmfo86QGg5rO0tlYjqOnCDx+hlU89LePBb71Btk5OMgYAAPNmsoDVRAtW9ax1lEN68rGyojfdvNQduFEOFoYfT5oeqzgBaoMWw4bSu9np1P+5Z9QVqOm2zPuILm7fQU4+PnTLyy+qqwAAYM5MFrB4rxDbmZlB6Vog6G/nQG1scEBjeVwJWJjBAqgNrHQ66ev37CE91A4bXn9T+r4zZ5B30yYyBgAA82WSgGVrYUETHF1l/ENqEn2bmijjO+0NoQtuTICVYSlRRG6u9FVtoL0jzXP3oZH2TuRmabJsDmA2Qvfvlz6wXVvpr2f43Pep3ZjR6hFUV8fX/kFHV66ScafxD0gPAADmyyTvku93dCEX7Q13eG4O/ZyWTH9lpMn1TrZ20sONCVQBK1R7XataRxs7WuzhR2O1n/UiTz86E9CAfvcOlHANAKUTd/4CpcbEkIu/P7kFBamrRQvu3Il6T3+C7vh0Pjl4eKirUF3t+d930nd8YKz0AABgvkwSsO7T3nSzH1OTpN+TmSE9vynHPMeNM85ghVWDgPW0iwfptDD1nfYz3pxpCNA9bO2prrVhyRMAlE70yVPSu9erK31xLu3aLbMi9u7udNurr6irUF0dXr4iPzzX69FdXQUAAHNU7vzTx9aBWusMe61+TEuWPkWfRxFaKOC5DT8VEqDsAlS1MX4tq9JweycaYOdAiXl55GlpRd6W1hSdm0vrM1Llnmsplgsa95MBmLvE0FDpXQMDpS/Juldelb7H1Mnk17KFjKH6Ort5i/SNb+4vPQAAmKdyv+sdYO8g/TrtzfbFnGwZs6g8w74hBKwbZ1wiWNUBa7qLu/TpWnAebO9ILXQ25G1lRbfaOcrZZ4f969EzWl+cmdq9S4ENaLarp7oCYL4yk1Okt3W+fknvsAMHaffi/8mYKxBC9Xb+3/+kr9utq/QAAGCeyh2wbrY1BKy/0g3LxoyiVGEGb0sr6aHsjAErsgqLXPSytZcDj+O0wMxheW16KvWNDKEOERfp4bgICdY8O8Uh6jXXa0vz88yXMXxNdXan9929ZQxgttS+RUur0v238djqNdK3HD5Meqi+wg4ekj6oYwfpAQDAPJUrYAVb6+T8K7ZRe6NdUI46u8m+FhdB4P1HvM+sNK2seP8Vv3LJeXmy5LKqjFH76zy0oHwwK5MmaaHqSHamzFauSEuh+2LCaWxsuDxnsrMbzSowk8WFT95xMwSqd5PiiGPieEdX+tjdR64BmCMLY8Aq5YHDHLBys7JkVsSjfj11FaojY8By9PIiZ19fGQMAgPkpV8BqpcJVSG6OtIL4wGFmX4vLef/jE0R/+tQpVStqdqck/sbZq7yqXR7IM1CM91w9ooUrPuOssD/SU+mh2AgZj1LnoTGe1eIQuiUznW53cKIY7e9IrFo6ekeB5wGYE52DvfQcmkqDn3d01WoZtxwxXPrqosPY+6lu1y7qEaTHx1NWquGXjY5eWBINAGCuypV+2uoMMzOHszKlL8hK5l+IavMOrLUZqbQ7K6NUbZ/WysI463Uy+8q+tsrGywN55orxzNXZAnvsCvstPYVOZWdJoOJQNtHJlR5zcpN7vbXP09jahny10MhFMnhW7AsPX1rhHUhdUcofzIy9m+HfC+NerNI4tsqwTLDVyBHSVwdBnTrSmG8X0+Pb/6Mndu+gXk9OU3fMW1K44ZdNDp4IWAAA5qpcAauzenO8Iytd+oK4pDervQsEiabERdKgqMulahxAysL42h7Kvja8VpZb7BylX5aWLLNQ17NVPWe6i0f+0kCe3XpUe526RVyiluEX6OaoEHo2IVoKd3CAW+EVKIUzAMwFl11n/Z+dRQNeeI6Cu3SWx4VZWFrKPi1eSnhui6E6Xd1inlsVQnbvoc0fzKPkiAjZczRi3gf09JGD1xTjKO1es1pDzfLr7A0zlQAAYH44/1y75qsU+H+ZIYENyUYLUrdob5r3F5rFWuYVQH3tHGim9mZ6cUqiugqlxZX5eJng6Jgw2qAObq5sW3yDpWIgByQOWdfzvhaqxju5yph3jXF6v1v7/jcV8f1zAH9Xez4fXMzuiA4tVYgDqOneTEkgG8drf6mgz8ujvNxc2aNloYUS416two6vWUtfDa0+M1ms9V13Ut+nn8oPi1yu/MDSn8i7SRM5LHnNM8/Rpnffl3u1GR8e/eKlczJ+1t6ZcjJKt3IhsF1bSouLlyWGGUmG8ySvx71uXXrqwB46tmo1LRn3oLoKAADVwQ3PYN1s5yjhKjw355pwxazVm4PcIvbsQMkaWOvy92AV9dpWBl7qx+GKcaXA0hilwhLvszL+xSpuaWS29vdienwUfZqcII/ne/jKEkKA2oxnejhcZSYn0//uvIe2LVhI0adOk17794FnrKx0Opmx4nDFYSsvJ4dys7OlcQBjLgEB0lcnh5b9SvO79qA1zz5P2Wlp1LBPb7pzwacSrhj/OcxB67vukP7sP5tLHa6GffAeTd+3m164cIZeT4yl1xNiaMLKFRJYS6pG2GLoYFluam2HZdYAANVNOQKWofgBLwErivGtckUXGOdqe3zYcWkZavNVb53V/ive02QsClHZjN8Dz55xJcPSMJ6DtjnDMBN1Qvv++XDikrySGCNfo472c8Q5WVDbNezXV/qQPXvp8PIVtHzyVHqnaQuaaWkjbZbOnmZZ29HTFjrp+fEzNg7Sfhw7Xj6Wg1h1temd9+hFd29a+sAEOr72Dzr063L6qFNX2jz3Q/WM2sXBw4PajRlN/Z97hvrOnEHD5xpm6Y6uXCV9aYTtP0ChWou/eFGCt52rqyyzHPreO7K3bcah/XTr7JfJt0Vz9REGzYcMlv74mj+kBwCA6uOGlwju8atL9ax1dFdMGIVob6wbWdtQI52O6lrppHx7D1t7KdH+eFwkLSnF8rKy4tmzHzz9qZ8Kek/HR9M3qcUvReQZoffcvOlWe0caGxNe6lmZqsD7l7hIxFLtdZuqvX5V4WUt7ExzdqePk+Pp1cRYdbVkXH6dC1jwcsK7HJxpdXoKjVfVBUvCf192+QVL+K3KJZEAFW3azm0U3LnTDS2Z471bc+KiZPxhxy50ee8+GUPV4DBlnKErLOb0GTrw08+0fvZrMhNZFrzMkGcAG/TuRc2HDiYXf391h2j/kqW09dMFFH7wEL2h/beZveLtT6kxMTIGAIDq4YZ+FdpMZyPhKikvjxZ7+NFOLWz94OVPr7p60QQtGHAVOeP5V54lLPviWQueKeG9WlzooJ2Nrbpzfd+rcGUsB19f+36Kw1+HA+FA7WvwH7i7nek3H/Ofl18XU2ijXocDZaw8aErN1Z+FZ6FKi4MSy1WRPaaUs2+XtID+dmKcjPnvD0Bt5NeqpYQrduT3ldKXBe/PObLiNxm3HT1Keqg6fi1bqJHByXXrZakk76HyatyIBrz4PD175iR1fGCcekbpJISE0N7vf6BfHnmUXgsIpi8HDqGdX34l93i2bOp/m2nIO2/J4+z0dIQrAIBq6IYCVk9bQ0D5LzON0vR5sjRsY0YaLUxJoOcSouXw2UNq7xDv0SrO375BtNanjhTE+FYLTH/5BNEIeye5xxXsjHuACnvC2Z36a+HqgvZ1J8UaZnjqlnBo51x3H7JVgY9NcXKTMPihdn2p9rXHqb1D5fGz9nn+8w2m+drn5D1U5dFaZwhYfLBvVYlQv3X1KkMFMN63xfTqpY4qw29uv001bOy+Vfu5e5tb1TEwC40H3Cx9xJGjFH3ylIzL6uCy5dK3HXW39FB1vh9zPy0ccBu936qNzCJxEPr27tH0oqsnfT1sJF3auYs86tWl0d98JRUWbxQHNw5brwc3yJ/17D75UdnXxpUK7VzK//8vAAAwrRsKWHymEduRlSGltztEXKRRMWH0QkIMfZmSKMvvUrTgxfJKWIEYqoWvy1rbq32etWov10daQDkT0ICWePnTr16B+W/aCxrtaDik9nnt6wWp+/x5isKzaRzGjPjr8Nc7lZNF92vBiu9zAOOvWx7bVAW8e7XPucuvLv3qHUCfefhKpbwP3A3NtRR7J1pq4YqXP7LrlWh/Ugua3CrCcTVzxUs/S4Nn8HimkGcUI9XPwvjnKI24vNz8pYHG89UAapMmKmCd2/Kv9DeCZ0j4jTUvI6vXvZu6ClUhLS6OTm/8myKOHrtmFunY6jVS9IODEeMzwjholQfPbPHSUg51SeHhUgyFudYJlB4AAKqPGwpYTdTM0skSlo8lq4DlYFH0l+C33q20MMFvyjvY2OWf++SkhRA3rfHsDc9kDFRnMRm5W1pJwOM35Ou1INdIBawzxRzIO8rhym/3eD/RuNhwui3qMu1Xy+/4z5Cl19N9WjDiZYc36q2kOOqkBc0f1EwMF964x8FZlrw94Ghogwr9WYpi/PNwgYvM61Rg5N+UvlBBhSGOq3A3SvszlGZGroWadeMlhRycGR8qXBbGJYVlmTUDqCka9u0j/bl//5P+RuRmZdGJP/6UcdOBt0kP1Rcv7eOZLa4AyUsFb3v1FXXnxnGo++KWgZSVavil5Nifl0gPAADVxw0FrIYFQkBxjNXjjHuxCuPoMCYmjL5KSaTzOdnkpd6MR2tvsrtHXqJFqmBFd7Uc0ShVBTcnLbjxDMkwtaTwWBGzPfyVRzoY7vMhuAWLNRi/Hr+pv1ULXGFaKOA9Wl94+Mr1G8F/jifio+T75+IfXKCCzwF7SrvG17loxfUEqt9KGkOKqXHo4T1eQ7Q/60j12hXlX+31+ln7fvk1ftPNcGhwSYzLOY9pfyeM1QQHaV+jLLNY8SpglTWYAVR3ng3q5599FXbggPQ3iqvzsZtuHyk9VG+8xG/p+IkyvuXlF6nJLQNkXB48a7bxzbdl7NeyZbUs3Q8AYM7KHLD4DTOXRue3wiElhIAYtf/GtYQ3y7wk7BktgPDMz1xVEekf7RoHt92ZhhmmwvuweLaJ38Dz9/GAo4ssu+MwsKuIghCB2vdpfHv/UsLVSzguqu+dlyAe0cIZz2zxG/w7HJylGl558PfPfw4OVHzIMu8vMs5sXY+fpSFgceAzFX6teOnicu9AOhlQnzb6BNH/PP1pkaefzB4Wh5d8RmjfBy+j/NHLn5xLWOLIVQMZ/yx4Px4fGswhdkYZljAay+3zEk6A2sSnuaHENp9nFXXipIxv1CG1D4uLZtTt2kXGUL3t/e572jLvIxlzSXdT2PbZ5/nniw14/lnpAQCgeihzwArSQgvj0uwliVKzEa7FLBEsrK76vMagFJpr+PwckgpblZ4i/VtqZuUbLcQUhUuGszM5WdfsZ+KQxnNhvESRA8iBrEwaGxshRTv44+ZpIYurFFb2bIqPWh7HM3nlxXvPuOjG2YAG0vdWs4HG/VWspHO2OHA+FBcps2lcfGK1dx0JW4V10z4vl+Xn145LtLNPVWCe4eJBX3r4FbmXriBeSslhmitTbtfCGUBtUqd9O+nDDh6Svjx4v89RVYWwzT0odlFT/DXnDUpPSKBG/fpSq5Ej1NXicRXCksKYlY0NZSQb/nvb+p67pOAFAABUD2UOWL4q8FxvhiVK3S9YEY7faPOsSWFdbOzoTgdnWTa4XhW7SNfr5c0/h5+71ewI4yWHBSPBIi1c/a4CV0E8czXB0VDyO9iq5Df32Wqv0w7tjT1XQORZsrFayPrFK0BmfHb71aXRBb6HimQMlCVVXywJz0i95upFB/zrSWVDnrni14yX7r2cGCN/Vi7BnqAFmWnxUVKJsST8mgyLDqXdWvBtqX0cV138ztNfQiiXxuefDZ/bxb7WfhbG15Jnsfi15K9zu4MT7dVeQ67aOF77mfASRQ6u/HeJAy7vI+NiIOy1Up65BVCTBKny7Bf+2yp9eR1bs1b6wHZtpa9Oujw0gZ46sJfu+epL6jHlMZlls9Jdfx9nbcdl9vkMK9b45v7SF8dC+2/2ba/NpsFvvk53f/G5unpFcJfOUq7dwd2dMlNSyMnbm27/2DBDBgAAVa/MAYsLUDB+41yS/IIFBWaAutvayb4fLsFuxOXTZ7p4yHh+cvxVe48WJCcYeg9fWukdSKu1dimwoZRpN7rVzkHe+Bf2nIunhDuuLsgh7bZCBSZ4bxf/SXivWMFSErzEjSsicsl5Dhcc9DhINC3ia1QEY9W+spw/xQGVDwbe5htM63zq0GRnNwku/DPiJYrDtYDEgZiDl057LZanJVOPyEv0YymXLfI5VYOjLtObSbGyB473VvEySg6e/LPhmScOYLMLhSOuJjlI+7if1KwWV218391blihycD2qhUAOgtPVz3NuUnyJh0UD1FQNevWU/ryJAlbYfsM+Lt8WhqWH1YlvixYU0KY1dZ4wnm7/ZD49vv0/eicrjVoMHaKeYb5O/7VB+kb9+0lfHL32/53vR90rSwC7PDyRHlq7inpMnUz9n51F0/ftpmk7tspZW6c3bKSfJzwsH9N54oPU/r57ZQwAAFWLJ3oK5ovr4pkLfnO9RHtz/nh8lLp6La4Q+I9vEB3NzqQ+kSFybZr2RpqDAO9P4iIQfN7THDcvWV52VnsTf2tUSH5xDKM3tPuTnNzUI4O/tY//ICmOpmvBjJescVnwd7THHI78tWDBe7N4Rozxm/7ZBb4m49D3jac/ddUCH38ergBYEg5XJVVMNBWukHhaCx6sadj5Epfv8UwVh6nC+NX7PS2FVqanyFJKfu1e015Djrn8+V5OiMkPPDfCQ/seubIgV33samMvSy95tmpFejJFl3DuFVee7GvrIIdJt1UzWDna37xs7a/fHi2c8UwklgZCbcRLwh79+y8ZP6/9+2is/lYellZWElosLC1ptm8gpUQV/9/iqsCzVnU6tKfA9u2l923ejBaPvDO/AqK58mnWlGYdP0IJly7R63UbqqvFq9utK933w3fkUb+eumKQHBlJB3/6hX57Yro8Hvb+u9RnxnQKP3yEPmhtWI4KAABVp8wBa6KTqywJ4zfEzyZEq6vX8tOCzhH/ehJ++KwsxrNVfI2DBO954jfajGdr7o8NL3a5GhfV4NLsOu273am9GU8uEMK+8fSjocVUw3ssLlKCxiHta/Ibep6ROpGTRf21N/rB1joJf3dEh5UYZCoTl0PnM7T4DLF6oefU1St4D9Ut9o5Sup5n1Qri2aJVWrBalZ6aX2mRwwwf3sx4b9RLiTElhiAAML2+M2fQ0HffphN/rqNFg4aqq+X3Xl6WLCXj4xoykko3Gw1Vi5cGTtqwji7v3UcfdixdgRLXOnVk5opLvXM78/cmOrpylbprwEsEXww5T9a2tvTro5Np+8Iv1R0AAKgKZV4iWFrRaqlfwSqCfK7TJ8kJEiA4XPFbfV6Kd3dMWIl7gXh52+bMNKk6WDBcsfGxETRFC1I8e3VO+xy814iXmrXRQt0vWqjgr3l7dCid1oJVVy2g8B4gDlc7MjOqVbhilqrmYYb2PfMMYCcbO3rMyU32rfGSOq4CyI85XBV8FRqHnZP9Tly10Biu2H4txH6mvd4cNB/VGsIVQOVzr1tX+phTp6U3BZ2Dg4SrPO3faYSrmqPdmNHS86HBpZV4+TKtmDqNfpv2JP3+5FPXhCuWEh1Nm959X8a8d8stOFjGAABQNW54ieCHyfH0+nUKEnAVOy56wOGnML7HhwlXVsDh2bNeWsDiA3E5rPHXrm54lm67X/H/Y+SA9Lf2vfOSvA3paXQu0LCc0PfymasKfwBA9TFh5QpqMWyovEk2FjkwBf6cvEfH3JfdVbSgjh3k3Kns9PItYebzrx5ZbzjD7JMevenCtu0yNhU+Z433ZnH5/lPr/6Ivbhus7gAAQGUrc8BiPLvCZ0eB6X3t6SczVMbZrENZGbLP6ZAWCHl5pBEXqwgPNKzh97t8lnLK/mMEgErw2KYN1LBvH/pu1L108Odf1FWoCTqMvZ/GfLtYxhyILmzdJoVKzmt9WmzpK55yoQpjNcD9Py6hH+4bJ2NTC2zfjh7f9q8sFeQDqX97/AmKPXde3QUAgMpyQwELqh5XRgxTAcs/9Gx+eXQAqF7uX/oDtR11jyzx+u/jT9VVqAk4sNy1cIHMYhUWduCgBC0OXLzkL/FyqJRMz8vOJnt3d3IJ8KfG/ftR29GjZFaJHfp1OX171ygZVxT+uzb6m6/I2s6OMpOTad0rr+YfcgwAAJUDAauGQsACqBm4JDeXz/7zxZcpKTxcXYWaxM7Fher37EH1enTP77mSY2nxAcP/vPcBbXzzbXWlYnEJ95EfzaNmgwbKY57F+vfDjxDwAQAqCQJWDVUwYAVoAYsPRwYAgIpnaW0tQau+FrTqdOxAXo0akWfDBqSzt5f7uVlZEqZDdu+RGa5dXy2W2a3KxkscuXw7n0vGuGDG8bV/yr49Bw932cfH7Y8XXqJN77wnzwEAgPJDwKqhELAAAKoXntXikFUVYaok7e4dQz2nTpZztYqy5tnnEbAAAEwIAauGQsACAICyCGzXVpYNcstITKRjq1bT0ZWrsXQVAMDEELBqKFQRBAAAAACofirsoGGoWHkFZqzyEK4AAAAAAKoFBKwaKk/1rOAYAAAAAACqDgIWAAAAAACAiWAPVg02zdld+vnJ8dIDAAAAAEDVQsACAAAAAAAwESwRBAAAAAAAMBEELAAAAAAAABNBwAIAAAAAADARBCwAAAAAAAATQcACAAAAAAAwEQQsAAAAAAAAE0HAAgAAAAAAMBEELAAAAAAAABNBwAIAAAAAADARBCwAAAAAAAATQcACAAAAAAAwEQQsAAAAAAAAE0HAAgAAAAAAMBEELAAAAAAAABNBwAIAAAAAADARBCwAAAAAAAATQcACAAAAAAAwEQQsAAAAAAAAE0HAAgAAAAAAMBEELAAAAAAAABMxq4B1r6MLHfCvRy+7epKnpZW6CgAAAAAAYBoWWtMbhrXfZt9gaqmzkfGx7CwaExNGobk58hgAAAAAAKC8zGYGa6S9k4SrMzlZtCMznVpo4x+9Asjfylo9AwAAAAAAoHzMJmD1sXOQ/ofUZBoTGy4hiwPXO27ech0AAAAAAKC8zCZg9ba1l35zRhol5+XRxLhIisnLpcH2jjTZ2U3uAQAAwBUWlqiFBQBQVmbxX84AK2uqa62jWC1QHcrOlGuRuTn0XEK0jF9z9aKmam8WAACAuavXozs9+Ptyejcng2YdP0J3fPaJugMAANdjFgGL91uxo9lZ0hutSEuh71KTZPyii6f0AAAA5u5OLVC1HD6MLCwsyKdZU+r+2CSasHIF2To7q2cAAEBxzCJgtdLZSn9UzV4V9FZSLKXo82iQvSPd7YD/cQAAADh6e0n/WmBd+rRXX0oICaEWw4bShFW/yfXKcv+S7+mZk8fotZgIei8vi0Z/85W6AwBQfZlFwPJVlQJDcq4tyR6Vm0tvJcbJ+FkXD/PZlAYAAFAMJ29DAajU6Gg6/99W+qx3P4o8foIa9ulNd3z6sdyraKO+XkRtR48i7yaNycHTU2bTcrNxtAoAVH9mkSd8rAyHCkcVc+bVwpQE2p+VKfu0ntFCFgAAgLmy0unI0tqacrOytECTLdfiLlyknyc8JOPukx+lBr17ybgsmtx6C42c/yHd+fln1GzQQHW1aN0efYQ6PfgAZaen0yc9+9Ar3v4009KGfnl4knoGAED1ZR4zWJaGgBWZlyt9Ud5JipV+hhawOtjYyRgAAAAMLu7YSZvefV/GvZ54XPrSGPL2mzQnPpoeWbeWej4+hbpNepgeWruKntyzU/Z3FebZsAGNmPeBjH99bCpd2LqNUmNiSK/XyzUAgOrOLAKW4fdvRIaYVbQNGWm0NC1ZxrNdUfACAGqucct+kj0rge3aqisAprH984XS33TH7RTUqaOMrye4S2eyd3Oj0P0HaMPrb9L62a9R6L79VKdDe5ry7z8ys1VQ14cfIms7O9r7/Q+053/fqqsAADWHWQSsTPVbLzsLC+mL82ZiLGVoz+1ma0+zsFQQAGooXlbFe1bG/ryUXOvUUVcBSoeXBV7auUtmrAqLO3+BDv78i4y56EVpfHHrIHq7SXOa174T/fnSK7T+1Tk0v2sP+TyOXl5054JPyc7FRT2byLNRQ+mPr14rPQBATWMWAStDnye9nUXJf9yw3Bx6NTFGxhyw+to5yBgAoCZZMnY8nVr/F3lpb1THLv1BXQUoPQ5An/Xprx5d7cQff0rfspQBiwNbzOkz6pEBX/tu1L10euPf5NmgPo38+EN1h8iroSFgxZ49Kz0AQE1jFgErLs8QsDzVXqySfJmSSH+mp8r4PTfvUn0MAEB1w29e83Jz5cBYnF0EpnR8rSFgBbRtQ95Nm8j4Rq2YOk36juPGUt1uXWUcf/Gi9B7160sPAFDTmEXAitHeZDAvVU3wel5IjJGzsepb6+gTDx91FQCg5khPSKDLe/bKOKhjB+mh7DicDnz9NXruzEmaHRlKb6Um0rs5GdTklgHqGZXP1smJ/FvfpB5VvpSoKLq8d5+MA9u1k/5GRZ04Sf+8P1fG/WbOkJ6vsaIKYAAA1ARmEbBiVfVAr1LORl3Myabp8VEyvsXOkV53Mxy4CABQk4SogFWVb8ari+ZDBlPXRx4qsvEsX1H6PTOTXrx4lga88JxUtnPy8SGdgwPpc3OrtKLdxDUracbBfeWePSqPKwGr/IVUNmsBi5cMtrp9pLzOF7Ztl+s9p00lnb29jAEAahKzCFih6vyrQHXgcGmsSEuh+cnxMn7UyY0ed3aXMQBATRFzxrDvxatRI+nN2YRVv9FdCxcU2ab+t1lmqG595SX1bCK/li2kvLi9uzsdX/uH7Eea7RtIzzm40DO2jnR6w0b1zMrF1fWMZ1AlhYVTYPvyzSDdqMt7DeE9sG0b6csjOTKSjvz2u4ybDbyNjq5cJXsIuQDGXV8skOsAADWJmQQsQ6H2sgQs9lpibP5+rFdcPWm0A/YxAEDNEXv2nPQ8K2Du1j73Am1f+GWRLfbceXmNbp39MvWYOlme33XSI9Jv//wL+mrIcDq35V9ZGscVGqtS/Z49pL+0azfNOLSfpu/dRVO3bqFH1v8h1ysLf31mqoBnLJzRVAtY7I8XX6aMpCTqcP99dMenH8s1AICahNc51OpW11qnj6nTSH/Qv16R90tqLpaW+n99g+Xjud1i51jk89DQ0NCqW9NCg/59fbb+lfCQIu+jXWndJj0srxU3r8aN9E8fPiDjgLZtinx+VTUtBMr39fj2/6R/KeT8le+7UcMiP8aUzdnXV997+hP6dveO0b+eECNf17NB/SKfW5bWsE9v+VyPbdqQf63JLQPy/2yT/vpT7xoYmH+P/2571Kub/xgNDQ2tOjU+GIoHtZqHpRWdCqgv52EFhpa97GtLnQ395h1I7trnSdc+x8joUNqblaHuAoApdXv0ETq8/DeZLagp+MDVkgpJ6PPyZKakKrx0+QJpb0zpnaYtKPrUaXUVisL7mni/2get29EDy5dJmfu3GjXNnwmsDni/GC9pLGzNM8/RpnffV48qRrNBA+mhtavUoyu+u2cMHfxlmXp0Yxr170ePblwvZdsXDjDMYrF63bvR6G++Ji30ymOe6bK2tZXn838jeNkmAEB1YxZLBJPVOVi2FhbkcJ2zsIpyNDuLHoqNlLG99jkWe/pRI2sbeQwAptPz8Sly6Ohtr76irtyY+r160qA35lC/WU9LEYPrsXF0VKMbc8dnn5TY7vz8M+o8Ybx6duXiA2OZX6tW0lcl3j9UXfHBzG5BhkOZLSwtSWdnK+PqVuL+wtZtcs5ZwV9AJEdE0Ll//1OPKo5x+eShZb/SgZ9+prS4OHk89uclNHzu9cPd7Z/Mpw5j71ePruBDhge8+LyME0IuS2/EBS8+7t6Ljq1aLY855HG4ys3KoqO/Xxv2AACqA7OYweJgFRpoOLiwftg5SlbnYpXVnQ7OtNDDV8bHtdB1R0woRasS8ABQfpP++pMaD7hZ3kDu/b7sB+TyG+O7v1x4TZi5uGMnrZw+Q/qCeN9KcOdOZOfqKhX3tn78Ke359jt1t/Ta3TuG6hdTiY5xxbk/X3xZSqdXtnu//x+1v+9e+vH+B2jfDz+qq5Wvya230CPr1lLI7j3aG+OVtPGtd2Rmr7rgYM+zp/y9LR55Z/7jv+a8Qetenq2eVX1wWO3/7Cxqqr2uv017Mr9iZEV6cs9OqtOhPX3e/xY6s+kfGr9iGbUaOULd1f49276Dfp08lcIOHFRXruB/z6bt3CbjxSPuoLP/bCZnfz8K6tiRhr77FrkEBMhhxHPbdaSsVMPe58IcPDyo5Yhh2t8bPR38+Zcq3w8HAFCSq9YM1sbmYGGZv4fKzdKyyOeUtj3i5Jb/uVZ719HbWFgU+Tw0NLSyNScfn/z9FrbOzkU+53pNCxL5n2Pwm6/rh7z9Zv5eGm68z8P43EFvzMm//lZaUv74oT9W67U3cld93prcRnw4V/5cbe65u8j7ldWa3nZr/mvMjfcQ1e3aRV+veze9X8sWRX5MZbV+z8zM/778WrWUa1oglMczjx3WO3p5XfMx5tiGz31fXhPeJ8V7oIz/3jTq11c/6/gRGb+XlyX72Yr6eP73kZ9TVON/7/xvalXkx6GhoaHVwFbkxVrVrMkiPxQFWVkX+ZyytGdcPPI/3w9e/kU+Bw0NrWyt1e0j5Y3WhJUrirxfmjbsg/fkcwx44bmrrhvfGM44tF9voX4pcsvLL8q1N1MS9IHt2urnxEdLMQi+NvPoIb1/65uu+hw1uQW0aV3k9cpuj25cL69vUc3eza3Ij6noVrC4BQf0gvc4SPD1R9b/oXfw9Lzqnjk2LqLB/24YXy9u03Zuk3s6e3v9qMVf5V/v+MC4az6e28iP5umn792lfzs9Wf/ipXP68ct/0Xef/GiRz0VDQ0Orwa3Ii7WuhQY2lEB0k862yPtlbW+5eeeHrI/dfYp8DhoaWulb88GD5I3ZxNW/F3m/NO3Rv/+Sz9F54oPX3DNWXbvttdn510Z/Y3hDaHzTeP+S7/WP/bNRxs+fP6P3btrkqs+BVr7WYugQ/Xu5mfL6Fmz8uhf1/IpuvZ54PP976P/cM9fcd/H31z976rjcfy02Ut/9sUnXPMfcmltQkH78imX6VyIu6+9f+sM1wZMD6xO7tuvrdGh/1XU0NDQ0M2tFXqx17VRAfQlDvW3ti7x/I22Bh29+yJrtit9uoqGVpzW+ub+8keVyzEXdL03jWSjjG+YeUydfda/xgJvl+jMnjl513RionjqwV34Lz9cmrlmZ/1wuS13w+Wg33hr17yev6xxV3tvYxv70Y5HPr8hmnO3k1m/W00U+hxsvX3zwt1/zn/ty6EVZfsp/X3lGx0qnK/Lj0NDQ0NDMt5lFFUEWqYpRBFvrpDeFx+IiaV2GYTPuVGd3mqY1ALgxudmGA8EtdTf276h3k8Zk7+ZGCSEh8vj2jz+iZurQUnZ6w0aKO3+BvJs2yT+slX1392ipSBbQprXcY7wJn5/Pj7tPflSulUTn4EDBXTrnNy71DdfiggzM3tWVUqKjZcx2fLFIjSoWH4o75O036fnzZ6jPU0/KtWWTHiuxvHnE0WNS9IKLhHAhCS7G0P+5Z2jShnX07OkT9E5WGvV9+in1bAAAADMp087Cc3OkD7Kylt5UHoyNoB2ZhjOxXnb1pPsdXWQMAGWTl2P4d9TK+sb+HeWQlBYbSxYWXBzVYNTiq9+4x54znGdkZXPlmAV+o288o6rn1CnS8/fCVe5Y10kPS1+Sh9aspGk7tuY3Pk9pTlwUPfTHaury8ET1LNj62ecUum+/jI3lz5PCI+Tso4oW0LYNTd+7i/o9M5M86tWlyOMn6ItbB5U63HEFxo86daVPe/ejXV8tlip6sefOU15urlSJBAAAMDKLMu1snrsPjdXCz69pyTQpznCmlal4W1nRCq9AaqYzvGkbr4Wu1ekpMgaA0jGWceZzm+Z3vTLDVFb3/fCtlE3f+933lJudQz9PvBKQJm/+mxr07iVvks8XODeIZ7+eOXlMxm81bCJvnNmLl86RW1AQzQmqT4mXrz6fp6BbZ79MTW+7VT0icvLxIc8G9dUjorCDh2jrp5/Ruc1bKvSw3xEfziVbJyf1iCg7I4OyUlIoU2s8exd28CBFHDmq7lYN/v7uXrSQ2o66Rx5zcOHZoYrGZc0nrFwhrz+f4VTw5w8AAGBKZhOwZrh40HNa25eVQbdGFf9G6UY10cLVCq8A8lUzZHdGh9HmzDQZA8D18dI6nv0pb8DiQ4anbNkkZ0590qM3RR47Ltd9mzejmccOU05mJr3s6XvNWTujv/mKOj4wjo6vWUtfDTWc7fP8udPkUb8evdmgsQSUsnCtU4ca9esrMyZ+LVuoqySfZ/2rc2jP/75VV0wjqGMHemL3DvWoeDla6OJDajOSkmVZJs/48WuRGhMjy+GO/Pa7nFVV0fgAaP56fHAuAABAbWI2AetuB2da4OFL8Xm51DjM8NtpU+tqayczWTrtDQsfZnxXTBjt1QIdAFxffsDatZvmd7n60F6e9fBs1LDIA0yL8ujff0m4yUhKoqXjJ1L4oUM06I05Mmuyc9HX9MvDk9Qzr3Dy9qbp+3eTa2Agbf5gHh1duUpmvJIjIuhV/yD1rBvDB9by99OgT29y9vWVPT9rnnlO3TWddmNGk87eTj0ibWxPNo6OZKO9fv6tWsohsW7Bwepu8Xj53P4ffpTZpbgLF9VVAAAAKA2zCVgcflZ715Fx3dBzlKrPk7GpDbZ3pG89/WXM+77u1ELWqewseQwAxQts15am79sty+nmtu2grho89s9GaqiFk/da3CRv/q/H2tZW9l9x4CgoPT5eZqcubNuurlyt5Yjh9OBvv6pHBhvffJv+eOEl9aj8eDaLZ26qiou/P9k6O0nosrS0lD1EHMIcvbyo8c39tddgmCyLZLw/bbZPgIwBAACgdMwmYAVYWdMh/3oy7hZxiU7nVFzoGePoQh+7+8iYv85d0WEUqopsAEDRPBs2oOfOnJQldLwkr6DHNm2ghn370Of9b5HiAqV1y8svyt4oZz8/SgoLo58mPEQxp8+ou0XjvWDdpzxGHceNpWOrVsv+IJ4JMyfNBw+i9veNoez0DPr5oUfUVQAAACgNswlYLCywIdlYWFTK/qhHnNzoTTcvGR/MyqS7Y8IoLs9QKh4ArsVL9GZHhcleoFe8DbPARmN/XkJt7r6LvrtnDB38ZZm6WrG4UAXvVQIAAAAoC7Mp084u5hrO2Qm4wTLQZfFFSgK9kRgr4zY2tvStpx/ZFigfDQBX4+VoXL2Pl6q1HD5MXTVIvBwqPe/TqiwIVwAAAHAjrLQ22zCs/W6xc6QG1jo6mJ1J2zPT1dWKsyMrQ0JVV1t7qqN93TY2drQsLVndBYDCrG101OTWW6jViGGyLC/i8BE5kyozOZk6T3yQ3OoE0pYP56tnE3V68AEKaN1a9gw5eHqWWEodAAAAoDKY1RLB99y86UEnV1qckkgzE6LV1Yr3tvZ1H9K+LluRlkIPx0XIGACuZmltTfd+9w21HT1KHvMBrif++FP2ZXEFQEcvT9q9+BuKvxQizx3wwtWV+PjA4F8fnaweAbNzcZEZwX0/LiF9XsUU9wEAAIArzGoGq72NHfWwtafLuTn0eyUeBLwhI43qWFnTTTa21FxnQ37aeF3G1WfwAIAWqLQAcOjX5XIYLO/J8qhXl7wbN5bCEzYODvIcrjbIBS/4wOCCEi5dov1aiAjdf0BdATbio3lSop7PneIzr4qroAgAAACmYVYzWA87udJbbt60IzODhkZX/lKiRZ5+NNLeScbzk+PpNbVHCwCKxiGr8S0DyMHdjfxbt5aQkBgaSju+WET63FzKycqSw3Jjz5ylY6vXqI+Cgu5Z9IUsrzS6vHcfLZ88Vc4bAwAAANMzq4A1ysGZPvXwpaPZWdQn8pK6WrmWeQVQXzvDb+JfToyhz5ITZAwAJePzm57YvZ1OrvuLfp74sLoK12MMWPyadZ/8mBw2zFZMnUZbP10gYwAAADAds6oiaNx9wOsiq8qDcRF0KDtTxq+5etE9WugDgOtLCg+nOXXqIVyVlapeyvvZPuzYhbZ+8pk8vv2T+XTngk9lDAAAAKZjVnuwmutsaZi9EyXoc2lRSqK6WrmytDc5WzLT5ftwtrSkIVq/MzMjv4Q8AIApcbn5rNRUCVa5WVlSNCQhJIRajhhOQR07UFDnTnT41+WUl4tz+gAAAEzBrJYI3uXgTJ97+NKp7CzqXkVLBI262NjR7z6BZK39CGLzcml4dCid1L4vAIDKENSpI439aQl51K9H5//9j74cNFSCGAAAAJSPWS0R1KmlMpnVIFPuzMqgSbGRMva0tKIvPPzIxdKsfhwAUIVCdu+hL24dSOGHj1D9Xj1pxIdz1R0AAAAoD7N6R2+t+nR99Zi041LxLyTEyLilzkZCFgBAZYk5c5Z+vG+sjLs8NCH//DEAAAC4cWY5g8X7oKqLhSkJ9KmqJDjAzoHmuvvIGACgMvAM1qoZM2Xc/9lZ0gMAAMCNM6uAZStbzoiyq1HAYq8kxtCKNMPBx+McXWiGi4eMAQAqw+a5H1LUiZMU0KY1dXrwAXUVAAAAboRZzmDlVMO6Ho/ERcgByOw5LWCN0YIWAEBFC+7ciVqNHEGbPzDsweoxZbL0AAAAcGPMqorgNGd3etnVk/7KSKUxMeHqavURaGVNK70Dqa61Th7fGR1GmzPTZAwAYEpdH3mIOo1/gOp266quXMGzWdsXfkHbP/+CcjIMv/gBAACA0jGrc7A62dpTXzsHOp+TQ8vSktXV6iNZn0f7sjJplIMzWVlY0AB7B1qXnkZxeTifBgBMp8fUyXTnZ5+QW1AdSomOptMbNtKFrdvkUGIXfz9y9PKiZgNvo47j7qfkyCiKOHJEfSQAAABcj1ktEUzOy5PeoxqXQ9/D5dvjrpRv/9LTl5wszOrHBAAVrNujk6Tf98OP9Pdb79C5Lf9S/Z49KLBdW4o4eoy+vWuUhC634GC678fv6K6FC+T5AAAAcH1mNYNVz1pHIxycpMjFwpREdbX6OZmTRYlaGLzZzoF8rKyppY0N/aqKYAAAlJezry817NOb/FvfRE1vu1Wao5enhKuVTz1Nx1avob3ffU+psbFyjw8lbqA9/9T6DZSZgv8WAQAAlMSs9mD1trWn5d6Bcg5WUOhZdbX6mu3qSVOd3WX8XWoSTY+PkjEAQHnx7FSPyY+Spc6w5/P8f1vpyIrfZFwQF8EY8+035N20CUUeO07f3nUPRR4/oe4CAABAYWYVsJrobGibb7CMW4dfoLDcHBlXZws8fOluB2cZv58UR29rDQCgMjl4eNADv/5MDfv2ocTQUPp62EgK3X9A3QUAAICCzGpzT0hOthoR1VeV+qq7x+Ii6Z8MQyXBp108aKKTq4wBACpLWlwcLRxwGx39fSW5BgbSQ2tXUb3u3dRdAAAAKMisAhYvDYxRFfka1JCAxR7WQtbR7EwZv+PmTSPsnWQMAFBZ8nJzafHIO+nQr8vJ2c+Ppm7dQgNff03dBQAAACOzKnLBBmvhhM+bOpeTTZtqyBlTGVow3JKZTkO0793Z0pKGOzjRNu1xSA1Y4ggAtcvBn5eRrbOzzGA16N1LDimOOHaMEi5dUs8AAAAwb2ZX//tsdpb0jdTG7pqCA+GE2AgJW7xx7itPP2qmszHcBACoRKuenkWf97+FLu/dRwFt21D7e8eoOwAAAGBWRS7Yk87u9KKrJ53XAkuniIvqas1xi50jLfHyl/EJLSyOiA6l2Eo8iPgmnS2dzsmSoAcA0Gn8ODry+ypKj49XVwAAAMyb2c1gnVGFLrjIha0F58ua5a+MVCl8wXgGi2eyKktLLVxt8g2ipV4B6goAmLvd33yLcAUAAFCAGQYswxJB1sS6Zi6x+yUtmV5KiJFxT1t7+sLDV8YVjWeuLmkBlb/mQ6hmCAAAAABwDfMLWNlXSrU3rsF7mBakJND8ZMNvje9wcJZDiStall5Pc5JiZfyS9vX8raxlDAAAAAAABmYXsHJITxfVMsGaVKq9KK8lxtLPackynursTg9XwqzSirQU+j09hRwtLOl+Rxd1FQAAAAAAmNkFLMYFLlhNOWy4JJPjIum/zHQZv+XmTQPsHGRckZakJkk/EudxAQAAAABcxSwD1sXc2hOw2KNayDLOyn3q4VvhM3MbMtIoPDeHmupsqIuNnboKAAAAAABmGbBCcgwH9AbUkj1EEVrY4Zks5mlpRR+6+8i4Iq1KT5F+oL2j9AAAAAAAYKYBK1QLJKw2FWnYmZVBU1XI6m5rT2+4ecm4omzMSJP+VrviA1Yd7fU9GVCfPqmkKocAAAAAAFXNLAPWZRWwrLTmV4tC1tK0ZPpEVRac5ORG9zg4y7gicMBK1efJMsH2JSwT5Bm10dr30biGlsQHAAAAACgL8wxYar8Sqy3LBI1mJ8bKHin2nrt3he4zW52eKn1xxS44yH6nCmJURoVDAAAAAICqZp57sLQ3/nlq7G/F81i1y4z4KIrNy5VS6u+5eaurpmfchzWkhH1YX6YkSD9BC1hulmb51w0AAAAAzIjZvuMNUbNYgVa1o5JgQbzH7CktZLG+dg4008VDxqa2Sc2U1bXWUfNiDm0+lp2VP6M2DGXdAQAAAKCWM9uAdVoFrEa1pFR7YWvSU+kjtR/rGS1g9bS1l7EpZer1tFWdwdXbtvjzt1aqma7hCFgAAAAAUMuZbcA6mZ0lfUNd7QxYbE5iLP2rAtA7bt5kY2EhY1M6kJUpfYtiZrDYyrQU0mt9PzsH8rCsfUsyAQAAAACMzDdg5RgCVpNaXt3u6fgoSlPV/t6tgP1Yp9TryEsEv/DwpV+8AqRE/AOOrtTb1l4OPc7S4tWVmS7Tz6QBAAAAAFQXPKXBkwtmp6UWCDb7Bsu4fcRFulSgsmBtw2XSjWdRTdcCl7Gynyl0srGjP3zqSNGQpLy86xay+Fb72sb9YQAAAAAAtY3ZBix2MbCBVNqbGBtBv6t9QrXVPHcfGuvoQrnauH9kCB3NNiztKy9e8Bdep5FMhU7QXsd0vZ6a6HQyM1jPWkeBVtbS+C8ZL1HkCo7twi/whwIAAAAA1Dpmu0SQ7cnKkL6zbfEH5dYWzyRE0+mcLAlE77ubbqkgB7Z96nVsprOhvzJS6dPkBHoiPopGRIdSx4iL5B96lgK0xqXjg7SwVdLBxAAAAAAANZlZB6wdmYZg0M0M9gVl6fX0THy0jHlZ3+tuXjI2BWMZ9utVCfxbPW+AXfEVBwEAAAAAajKzDljbVeGF1jpbcjWDQ3C3aH/e95LiZPyokxvd7mCasunGMuw8g9XWxlbGRTGem9UHAQsAAAAAaimzDlg7szKkOANrqzOPZWvvaAHrPxUs33fzkUOCy+tUdlb+MsE+JZyHtVl93S42dmYRaAEAAADA/Jj1u9xsvZ52qjf97UqYealteD8W/9k55LxvotLtf5VidioyN4cOqnOzSgpiAAAAAAA1ldlPI+xQMy+tzShg8SHLs7SQxfjw3+ddPGVcHuszUqXnc65KOnT4D/W8ex1dpAcAAAAAqE3MPmAZZ1Ra6cwnYDE+C2uJOg/rKRd3GnqdAhXXw6+jsdjFC67FB7bv1dfkQhclBTEAAAAAgJrI7APWATWD1cBaR04W5vVyzEiIpuPZWTL+wN2bgsu5H+v1xFipVphXwslqEbk59HNasoyfNcHMGQAAAABAdWL2Aeuy9oY/Ic9Q6oKr4JkTDkNPx0fJ2NPSij5095HxjTqSnUn1ws7R2NhwdaVobyfFydcebO+IM7EAAAAAoFbhc2dnG4bmi9/oB1hZ0+6sDDqshQRzEqoFTD4A+BY7R6koyLN4mzINS/1uBB88fD2JWqAN175mSG52/pJBAAAAAIDaAAFL09XWXvZgnc/JLle4qKn2Z2WSr5UVtbWxo062dlrwyZHZqIrEQXaj2rMFAAAAAFBbmP0SQXYux7APqaGu/GdC1VQz4qPlXDD2kbsPtTGjqooAAAAAAKZSoQFLZ2FBoxycaalXAE1yclNXqx+euWL1rcw3YLEn4qJk+R7/pZivhSwb7ecHAAAAAAClV2EBi89WOhtQnz718JWS3G+4edGPXv7qbvVyOSdH+vJW0avpzuRk0ROq6EVLna3MZAEAAAAAQOlVWMDqaGtHDhaWtC0zXZafRebm0K12jjTV2V09o/rgSoLMzsKCfK2sZWyuVqen0DtJcTK+28GZpjhX35lHAAAAAIDqhteAlXBq0Y2z1j51PWudzIqwYfZOtNjTj+Lzcqlx2Hm5Vl3Ya8EqJLChjLtHXqJT6mwoc8Y/K/6ZsTujw2izGRb/AAAAAAAoqwqbwcrRcpsxXLFV6Sl0WnvsbmlFvWzt1dXqIV2vl++XuZrZYcPF4VnHS2pv2lx3b3K1xOsCAAAAAHA9lfqueUtGuvR85pIpfOnhR597+KpH5ZOsDht2QZAQcXm5NCMhWsZ8Pta7bt4yBgAAAACA4lVqmuCDfFlznY305dHXzoFud3Ay2WxYkgpYzpjByrcpIy1/P9adDs40wclVxgAAAAAAULRKTRNpekOI8bDk843L50FHw5v9xalJ0pdXkvreXE3wvdUm72kB6291IPBbbt7UxAThGAAAAACgtqrUgJWaZ9jn5F7OZXjtbexoiL0jcSRanJJouFhOsbm50ntZIWAVNishWvap8SvzuquX4SIAAAAAAFyjUgNWtiok4VBMwPra04+2+AbntyVe/vSwkys1tr561uQxdWjx58kJFJtnCEblZfw8HtiDdY0LOdn0vNqP1d/OAaXbAQAAAACKUalpwvjFuDZ8Ubrb2lMLnU1+42IYvCxtu18wnQyoTws9fOUNPu+9YgtSEqQ3BeMeLBfswSrSd6lJtDwtWcavunrJzwcAAAAAAK5WqWnCqthoZdAz4hL1irzSpsRFypv60Nwc8rS0kkILP3oFyHN/1a6HqwOCTSFZ7cFyxgxWsV5MjJFzzNgcNywVBAAAAAAorFLThE7lq9xijjaO0d68H8/Oym8/aSHqES1ktQm/QO20tiIthazVczlsrfYOlFLtd2nj8jKWaXfCDFaxonJz6eXEWBn3scVSQQAAAACAwiosTYy0d6I33bxouRaCXnL1pAF2DmRrYUhY6Wq2qCxCcnNooVoSmKI+vqutvSwXHO/oIo/LI01vSH12CFglWoKlggAAAAAAxaqQNPG6FqwWefrRI05u1FsLQU84u9NSrwB6ytlD7meoMFNWbW1spf89LYWahJ2n4dGhNCkukp5SBRjKwxj6jCEQisdLBY1FQV5DVUEAAAAAgHwmD1g8U/WoqvL3RmIs3RcTLjNPl3KyqY0KSMYzp8qqnY2d9PuzMilOe4O/LTNd9mKdys6S6+XBZcgZAtb18VLBlxJiZMwHPk/TAjQAAAAAAFRAwBqtlutxuJqXHE/rMlLpBe3NePfIS/SlOrOqkxaUbmTm4yadIaAdyM6Q3pR4/xfzwTlYpfKzFmyXqqWCL7t6UkcVfgEAAAAAzJnJA1YDa530mzLTpDfiZYG56hwsNtnZjV7Q3piXhfGMqkh1KLApRaiKhF6WVhW3Ma2WeSEhWvbGsXfcvKUHAAAAADBnJs8SxjLeXFa9sLpWhvD1mqpEN93ZnUaXoQKgu/qcvDzQ1CIKhDZ/K2OtQihJYl4ezYo37H/j5Z9voHQ7AAAAAJi5CghYhv1VxpmsgpqpinOncrLy9/B85OFLDYt4blEOZmfSzqwMyrzBIhkl4WBonMVqjsp4pfZXRqosBWWTnNzoDhOUzAcAAAAAqKlMHrDWp6dKX/iNtqulJdVXQepkdhYtSEmQkt88J8XlvktjcNRlGqK1inJUFctorvZ6QenwfrvNakno+27eVK+UgRkAAAAAoLYxecD6JS1Zlo5xIQsu0W402N5J+rM52XRea2y29sacy30PtHekcSY4y6q8jmVnSt8EAaHMZsRHU5L2c3fRgjSHLAAAAAAAc2TygMWL975UBwK/VGBmaoido/R8hpURhysOWWy29ly/Kt77dETNYDXGEsEyu6CF5hkJUTLm0u3PuRjOPAMAAAAAMCe8Qm+2YWg6/2Wm00h7J2plY0utdLZkb2lJj6uzkp5NiKboAkUqjmRnyt6s1tpzfa2saLVaYlgVOBxOcHIlRwtLmq/2FUHpndACqrP2s+bZy+629nQwK1NmLAEAAAAAzIXJZ7CMXk6MkRmqwfaONN/dR659pIUW4z6ngngWi8u43+ngnH/WVVU4p8IA7xcrqgoiXB8XL9mRaTin7AN3b5wrBgAAAABmpUJmsBiHFZ6N4oIRPDP0U1oyvaKWAxbGe7Yu5ebQxZwceV5V4Xm18Y6u5KgFrFXa9x6uqgpC2ezPzqCxji5aULWiBtY2tCL9yrJQAAAAAIDazEJrpq95XoP96xssZdrHxIRLCXK4MfdrAetDNXP5blKcNAAAAACA2q7CZrBqqrscnamOlTX9nZFW5HJGKJ1D2ZmyPLCtjR31sLWXvXansR8LQAR17EDNhwwmn6ZNyaN+PXL08qSEkIo7ggIAAAAqD2awClnqFUAD7BzohYQYWqiqIcKNW+tThzprIYv3490WdVmqDQKYuyd2baegTh3VI4N/P/qYfn/yKfUIAAAAairMYBUyzN6JmuhspBLirixDsQa4cXu013CUozO5WVpJAZMlVbjHDqC6yEpJpbTYOIo+dYriL1wg76ZNqG7XLjKrtfPLr9SzAAAAoCZCwCpkuIMTNdUC1rasdNququHBjeOZq9M5WXS7gzMFWevI38qa1mFvG5i5iCNH6NjqNXT41xW0f8lPdHLdeqrTvh3V6diBHL296cTaP9QzAQAAoKapsDLtNVWuWjBpLasnwRTWpKfmHyjN1QWnqzPRAMDg4o6d9OtjU2TcY8pj5H9TKxkDAABAzYOAVUiW2pKGgGVanyTH09cpiTJ+wdWT7nFwljEAGFzatZsO/rJMxoHt2kkPAAAANQ8CViFZehWwkK9MblZCNG3ISJPxZx6+1N/OQcYAYBC6b7/0/m1aSw8AAAA1DwJWIan6POkdLfDSVISH4yLocHamjBd5+FFrna2MAcxVj6mTadqOrTR+xTJyDQyUa7mZhn9HAAAAoOZBiigkPs8QsLytuP4HmFqy9vo+FBtBkbk55GJpSYs9/SjYWqfuApiXRzeup9s//oiCu3SmViNHSNhiTj4+5ODpKWMAAACoWRCwConLy5Xez8paejC9sznZ9KAWsjL1eqqrhauvPfzIATOGYGYC27ejRv37UUZSEn13zxj65o67KerESbnXeeKDNOv4Yeo0fpw8hsrV6cEHaPjc99WjysPB+u4vF1L9nj3UFQAAqInwrraQsJwc6RtgVqVC8Rlj47WQxdra2NIiT18ZA5gLaxsb6e1cXMi1TiA16NWTfJo1pYgjR+nYqtXk5O1NoxZ/JTNcULl6Pj6Vek9/gloMG6quVI4uD02Q1v6+e9WV0mk7ehQ9sXsHTVz9O936yktkpcP/vwAAqhLOwSqEZ1LGO7lK/0VKAmWoohdgeudysumi1obYO1FDaxvytbKi9aoIBkBtl3g5lJx8fSmoU0dqetutVLdbV7m+fvZrtHLGTEqOjKQWQ4dQcOdO1LBfX7rw31ZKi4uX50DFcvDwoMY39yfS/vt/ePkKdbXiDXn7TXILCqKk0FDqMWUyeTVqSKnR0ZQSFaWeca2Br79GIz+aR64BAeTdpDE17NuHGvfvRyfX/UWZyTjYHQCgKnCtPCSIAjwtrehkQH0ZD4gKoQNZ2Gxe0SY7u9Frrl4yfjEhhj7Xgi2AuWg3ZjQ1GzyQcjIyacfCLyhkz151h6he925096IvyLd5M0qPj6efH5pUqW/4zZVHvbr0/PkzlJeTQ8/aO0tf0bjAyUuXL6hHVySFh9NXQ0fkV5gsiMP3tJ3bZLx8yuNaGIuhm194jgLatKYLW7fRJz37yD0AAKh8HLDQCrTLgQ31MXUa6UfYOxV5H8307S03b3nNuXW3tS/yOWho5thsnZz09y/9Qf++Plv/TlZakc9BM317Ytd2ec0bD7i5yPumbuN+WSpfb+bRQ3otdOubDx6kH79imVx7JTxEr3NwuOZjJqz6Te6PmPdB/jV7d3f9c2dOyvWujzx01fPR0NDQ0CqnYQ9WEcJzDb+t5AIMUDmeS4imzZmG5YHvuXmTjQUOIgNgmSkp9P3o+2jNs8/TH8+/qK5CRTu7eYv0vOSuot3x2SfU+q47Zfz32+/S/iVL6fjaP+ib2++ic1v+JWc/P+pw/7X7snxbtJB++8IvpGc807n+1Tky5v1Y1nZ2MgYAgMqDgFWEMBWwgq1RSbAyzYyPlnPImups6C03w5JBADDY9M579M/7c9UjqGhn/9ksfT21N66iDHjhOer+2CQZx1+8SHu/+17GRvt++FH6woUvuJCFZ4P6lJudnV990og/x+kNG8klIED7uDHqKgAAVBYErCJE5RpKtdexwgxWZeKiF88lxMj4AUdXut3BScYAAJUt5vRp6d2Cg6WvKByQcjIyZMyzV4Xt+2EJ5WZlUYPevaTipBF/HLMs5heB+5f+JL1xZgwAACoPAlYRIvIMM1h1cBZWpfsxNYl+TTNUvnrbzRvnkQFAlYi/FCK9e3CQ9BUl8thxWcYXuv8Abf/8ylI/o6zUVMrRAhYrGKb6PztLgpeFhUWRZdkP/2oohtJs4G04tBoAoJIhYBUhfwYLSwSrxPMJMfIz4IqOb2OpIECFGPvzEnrwt1+p6yMPkWudOuoqGPGsEp9JZmVjQ/V79VRXTc+vVUvpLxeoHllYnpqtMgYp/9Y30eC33iALKz5phcircSPpC0pPSJDvn7kGBkgPAACVAwGrCFFqD5aThSW5a2/yoXLF5uXSC4nRMh5q70RTnd1lDACmw+c8tRwxnO5auIBeCjlP45b9JGXh4Yrz/22VvlEFFrrwv6mV9CF79khfGJ/JZe/uTvq8PEqNjZVrPadOkf7kn+uk92rcWPrCEkNDpecS8AAAUHkQsIoQqb3BNwrAErUqsSIthRanJMp4tqsn9bVzkDEAmMb7rdrSLw9PoiMrfpP9PK3vvIOmbt1Cd3+58Kq9Pubs3L//Sc8HPVeUjOQU6S0si/7fMZ91xS7t3CXncbnXrUtdHp4o12JOn5Heu4gZLGapZrisbW2lBwCAyoGAVQTjDBYLRMCqMjMToumgOuh5nrsP+eJnAWAyfIDtzkVf0zd33E1z6tSTKoWsy0MT6OkjB2Rmq/PEB+WauTqnSrU30gJWRZU757LqzN7NTfrCmg0aKP2lXbuld/Lxlp51GHe/9DyD5eR95TrjkFyvR3cZX9i2XXoAAKgcfNgQH4gFBXhYWtGpgPoyfio+ir5NTZIxVL52Nrb0l49hk/k/GWl0V0yYjAHA9PxatqDhc9+nJrfeoq4QhezeQyumTst/g29unj5yUF6Xz/vfQmc2/aOuEuns7emRdWtlluuPF15SV8uu3b1j6L4fvpUxn3d24KefZczqdu1Cj283zKLN79I9/2fAga/vrKelgEVB2WlplBYXR3q9XmatnHx85Of3UWcs/QQAqEy8fmC2YQhG6dr/nKY5u5O1hQUdzM6krZnp6g5UtojcXDmXbKC9I9Wz1knhiw1a0AIoCr+hDOrUkTzq1iVnXx9KDEUgL4uU6Gja+/0PdGrDRimQwK9nnQ7tZUkaz4LEnjunnmk+uDw6F6LgKn+8TM8osF1bGvj6a2Tj4EA7vlikrpZdxOEjlKf9d65R/35SUj1bFdfgyn93fDKfPOrXp38/nE+7vl6sPoIo7sIFOR8rZM9eSrgUIks8+e+7TvteeObKztWVbBwdKfL4Cfp62EjKSMIvCQEAKhNmsIqxx6+uvKH/LjWJpsdHqatQVV519aIpzoYlNC8nxtBnyQkyBnD29ZWlbPzb/MLV3riS2rkt/9KWeR/lHxwLZXP7xx9JpcFFQ4bL4bXmZsCLz9PAOa/S7sX/o58mPKSuXpldCjt4iOa27aCu3rjbXn2Fbnn5RfXoipgzZ2leu46UmWLYq1USDliOWjDjGazczEwJzAAAUPmwB6sYxkIXPmqTMFStV7RQ9Wd6qoxf08LWEHtHGQPwm99Bb8yRcMWV1ngZF4epqBMnZV9Ly+HDaORH89SzoaxWPP4EPWPraJbhivE5VYxLoxdkPJOquIN+y2rdK6/KEsGES5fkFwP8d/nEH3/SJ917lSpcMV4imBASQomXLyNcAQBUIcxgFWOxpx8Ns3ei/VmZdEuU4cBJqFrOlpa0xrsOtdDZUJo+jwZHhdKRbEMRDDBfvJG//b1j6NRfG+jEn+vk/CIjt+BgGvfLUqnE9s97H9DqWc+qOwCl49u8Gc08dlgq+M3S2aurRA379qHHNm2QIP9uc0OpdQAAAIYZrGJEq8OGvTCDVW0k5+XR5LhICVcOFpb0mYevhC4wbxe2bqPlUx6nI7/9flW4YjwbsGrGTBl3e2xSpZar5mIRz587Ta9Gh9M7mak0OypMljNCzcL7mLJSU2WmKrhLZ3XV9DNYAABQe+DdaTHi1BJBV+2NPFQfPGM1Jc6wJ45nsj5zxxtWKBkfFnt6499k6+RUaWXHb/9kPvWe/gR51K9Hjl5eZGVjI3tiuJgB1DzGA4d535WRFQIWAAAUA+mhGAl5edK7WFpKqUWoPlalp9CribEyHmTvSC+4esoYoDh7/ved9K1GjpC+Ink1akg9pjwm48Uj7qCXvfzoGRsHmhNUn1JjYuQ61Cw8S8oKBqzMVMOeUEdPD+mN2o4eRaO+XiQVGAEAwDwhYBUjXs1gMSxDq34+To6XCo9surM73eXgLGOAovD+LNbklgFS/rqseGmhrbMzOXh4kL27uxTP4BmxopYc1uvRQ/rDy1fQ0ZWrKC02VspoQ811ct166Tk8BbRpLWP+uTL+e8H7AG9+/llZEnr/ku+p04MPUPMhg+Q+AACYHxS5KMYIeyf6ytNPxq3CL1BEbo6MoXpZ5R1I3Wzt5eyyAVEhdDI7S90BuNq0nduk2MXS8RNpz/8MB7uyoI4dtP8S8n8KSZbyeTVsSB4N6pOn1rwaNSLPhg1KnI3gs4jWzHo2/xDaW195iW6d/TKtn/0arX91jlyDmm/0/76mjuPGyjj+4kXt74wluQcbDkEvKOzAQdq56Cva+ukCdQUAAMwNpmaKwW/YjezUmy+ofqbGR1FsXi7Zaz+jue5YkgPFu7Rjp/T+N12p+NZh7P30xO4d9MSu7dKm/rdZ3khzSOJ7dbt1lXDFJbN5Fio3K0uqyfE5Q7yfih9zQHv0779oyNtvyuc07rOyQIGcWmXjm2/nn6XmXrfuVeEqKSycDv6yjBYNHkZz23VEuAIAMHMIWMXILBCw+M07VE8Xc7LpcVX0oouNHb3t5i1jgMKiT52S3rdFc+lZxJEjdGnnLrq0a7e0i1oI2//jEtrw+ptyqOyCvjfT68ENaKaVreyj4vOguFT3TEsbmmVtJ483vPGWfK72942RnkMX827cSHqoHaJPnqIF/QbQCy4e9HrdhvRGvUZ0ZMVvco8rWH53zxg5twoAAIBxkkAr1Lrb2utj6jSS1lpnW+Rz0KpPm+bsnv/zutfRpcjnoJl3azVyhP59fbb+yT07i7xfnjY7Kkw+t1twsN4tKEjG3Jz9/Ip8PlrtaD0fnyI/52k7thZ5Hw0NDQ3NPBtmsIqRU2AGywYzWNXe/OR4WpaWLOO57t6khWIZAxhlpqRIr3NwkN5Uej3xODl5e1Povv1y7lZCSAgd+nW53Bv2/jvSQ+10cfsO6fl8LFQNBAAAIwSsYhQsaaFDwKoRnoiPoqPZWWRNFvSxhw/Z4ucGBWSpgGXjYC99ebkGBtLIj+bRiA/nyuNtCz6Xnv3x/IsS6Nrfdy/1nDZVXYXahguccKBmzQbeJj0AAAACVjFyZYbPwEaKLUJ1x/vmHo+LpCytb6mzpU9wCDEUwIUqDP2Vf7dvhF+rljTs/XfpxZDz+eGJ92vtXPS1jFn0qdO0/DHDPQ5hHLSgdjr5p6GEe7PBA6UHAABAwCpGboH3YDrkqxrjUHamVBZktzs40XMuVx8CCrWbjaOjVP7jc4j4bKKCZ15x5T/pVdAqCz7zqufjU6TU+9OHD1CfGdPJwsKCDiz9iT7q1JV2L/6feuYVe7//QUq1s3u//x/1m/U0NezTm2Yc3EcdHxgn16HmO7ZmrfTNhwyWHgAAgKND+X6dW0u10NnQFt9gGd8fG05/phtO7Yea4WktWD2rwtXkuEj6We3PgtqLQ9WorxepR1fwIcMchJIjo2ji6t8pZPce+qhzN3W3ZEGdOmqfdzx11j63tZ2dXEtPSKBDy5bTzi8XSeXB6xnyzlsSrlhmcrIcTLvp3fdpzTPPybXqwM7FhTzq16Owg4fUFSgtSysreiM5nnT29rRo0FA68ec6dQcAAMwVH9Qy2zCEgjy0/2lOdHKV8e/pKXQ6J1vGUDNsy0ynOlbWdJONLQ2yd6KNGWkUjsOiazWeHeJ9MFxsgkNVblY2Ofv5ymHBLUcMpyYDbpYZrmOr19BxrV0Pn5c1fd9uCVmW1tZ0ct16+vPFl2nJ2PF0bNVqSgwNU88s2ekNG+my9j35NG1K7vXq0p5vv6MVU6apu9XDpA3raPCbr1PT224lGwcH+bNxGITr45lRv5Yt5O9LamwsnUTAAgAwewhYxfCwtKKHVMBamZ5Kp3IMZ9tAzfFHRip1sbWj+tY66mxjR7+kJ8v+LKideN8TzxS5BPjT5b37adWMp2n9K69RcmQkufj7k2fDBvI8PiCWDwPmM69KkhYXJ+GKA9mySY/R5rkfUsTRo+pu2fAZXDu++JIubN9Bmz+Yp65WH+51gymwXVsJo80GDaQ+Tz1Jre+6U84Ms7KxkUIOedn4JVNxrLT/xvDrxTOB2z7DIcMAAOYOSwSL0VJnQ5uxRLDG89KC8mqfQGpkbUOr01NofGyEugO1EQcsXpJnxOEqIzGJvJs0lse8BC6gTWsZx547r4Wdudob4ivV/8wZL3Xr+MBY2R/WoHcvdfWKlOhoSomKprTYWLKwtJTGH2Ol09GWD+fT3u++V880PxzgXw67JGM+iDovB7PlAADmDDNYxQi0tqZxjoYZLN6/cw5LBGukNL2e9mZl0GgHF2quzsbampkuPdQ+F7Zuo/1LfyIXPz+yc3WVN76Onp6UHh9Ph5b9Sl8PG0lRJ06SV8MG5Nu8mRQm4EDB+2cij5+g7HTz/bvBS91C9x+g3d/8T/aIndvyr8xcWWn/LXQLqiPLK518vMm9bl1yDw7WrgWRa51AeY3jtLB6av1f6jOZHy7J33nig/J3js9AS4k0FNoBAADzhBmsYnSxsaM1PnVkfEd0KG3Bm/IajSsKfunhJ+PRMWG0ISNNxlC7ceEGDlh8XlFhHceNpd5PPZk/o8XVBff9uISOr15Lpzf+TakxMXIdtP9RWFjIQbqO3l5k7+4ur5W03FzKzc6WYGbuxv70I7W55275u7NwAM7EAgAwZwhYxbjFzpGWePnLeEBUCB3IypQx1FzvunnTBCdXCsnNod6Rlyj5Bsp1Q+3DBTC6THyQWgwbqq4Y8JK4mNNnZG/X9gWfl6piIJgvnr0av2IZnf/3P1r3yqvqas3h7OtL/m1aU0Drm8izYUNa8+zzlJGYqO4CAEBZIGAV404HZ1roYTiotnPERSwRrAX40Ld/fIOlBP93qUk0XZ2XBcC8mzahFkMGU/OhQ6hO+3byhtnov48/pd+mPakegbngmTvtHzd0dlpFsba1JQcPD7J3d5M9cBZa4z43K4uyMzIoJyNTlrpyy8nMvGo/GC/v5MIlvDzWp5nWtN4lIIAcvTylQEdBSx+YIBUvAQCg7BCwisEl2t9x85Zx07DzFJuXK2Oo2QbYOdBSrwAZj4sNp7UoXgLF4L1FXBzDq3EjOfeKz78C83Dfj99RuzGj1SPD8lGuKpkWG0dJERGUFBZGSeERlJmUJOXsM7TGyyXzcg3LJi2ttdBjbS2Ni4Bw47GEIVUghD9nHi+z5PCm18seOA50HKC4cqPOwYHs3dy0oO+iBSAvctWCEFfI5L1wZcEVM42fn7+P4vDf7/BDh6UQTPihQ7Rz0dfqDgAAlBUCVjFmuXhI4xfH+/IZw0WoFea5+9BYRxc6nZNF3SIMlb8AAIwKB6zaIik8nCKPHZcWdeKEFHyJv3iRUmNisRwQAMCEELCK8babt5yDFZ2bS83Dz6urUBt4WlrRXv+65GRhSa8mxtLHyfHqDgDAFcYlglxlkisocqEPj/r1pXiKp9bz0jqeXXL09iYbB3uZdeIZJl6yJzNWlrwwuWx4qV9WWprMjHHw4bL4vB8wKSw8f+aMgxK3zKRkeW5WaupVs2Dydfl71x4b8T2UjwcAqBwIWMXginNcee5YdpYURIDaZYqzG73q6kVp+jxqE36R4rEEFABMzHhWGPfG5YEcfIxLBKVxCFLhiAMQQhAAQM1X9l+vmQlP7X+GDG+8a6dPkxPolBaeHSws6WGnK8UMAABMhQMUl7HnYhPZPCuVkmLYs5WYKD3PPPF1KUiRkYFwBQBQSyBgFYOXkbE4BKxa67MUQ9GCR5zcyIaX0wAAAAAAlBMCVjE8eSmHJp4rPEGt9H1qEp3IziI37WfN++0AAAAAAMoLAasYvHSMpSBg1WoL1SzWBEcELAAAAAAoPwSsYjiqGaxUPQJWbcYHDofn5lA9ax3d7eCsrgIAAAAA3BgErCJYkwUZdmARZRUocwu109cphvNf7nN0kR4AAAAA4EYhYBXBukC9gyxUsa/1eBaL9bS1p5Y6WxkDAAAAANwIBKwiFKwohxms2i8mL5d+UCFrFJYJAgAAAEA5IGAVIbdApsKpJObhp7Rk6YfYO0oPAFAbtBwxnO5f+gO9nhhLo//3NbUYNlTdAQCAioKAVYTcAssCczCDZRa2ZaZTSG4O1bXWUWcbO3UVAKDm6v/sLHrwt1+p7ah7yM7FhTqOG0sTVq6gwW+9oZ4BAAAVAQGrCAWPFsYxw+ZjbXqK9H3tHKQHAKip+s6ckR+k1jzzHL3TtAWtff5FurRzF4Xu2y/XAQCgYvBmI0zRFMKpM6pOIxlPjoukn9XyMajdhtk70WJPP/onI43uiglTVwEAap5nTh4j7yaN6dfHptD2z79QVwEAoDJgBqsIfPKVMXViD5b52JGVLn0XW3vpAQDKy8LCgoI7d1KPKk9qTIz04YePSA8AAJUHAasYxr1X2INlPqJzc2Uflr32hqiBtU5dBQAoOy4uwUUluLjEtJ3bqO3oUepO5Yg9d076qgh3AADmDgGrGMZYlY0VlGbldHaW9E10NtIDAJRVcJfOUlyCi0rYOjvTxR07KeLwYXW3chxf84f0LYYOocB2bcmjXl2yd3OTawAAULEQsIphLG6RjRkss3I6xxCwGlsjYAFA2Vnb2dGgN+bI+MK27ZSdni7LBHtOe5xajRwh1yvD8TVrpW/Uvx9N37ebnj9/hubER9M9X31Jvs2byT0AAKgYVlqbbRhCQU+6uMuBw0vTkulCTra6CrVdQ2sdDbBzpPPaz/yvjDR1FQDg+poPHkSzjh0mzwb15bFbUBBZ6XTkWieQ6nRoT21H30NNb7uVMpNTKPLoMXlORcnNyiILKyvKy8mhjMREysnMlBksns3qMWUypWvXLu3YqZ4NAACmhBmsYhjnrTCBZV54DxYLwh4sACijvNxcCTLsyIrfaNGgofSSuzct6HszrZoxkxIuXaK63brS2J9+pJvuuF2eV5HWvTybFg64jea170Rv1m9EbzdpTju+WCT3Rsz7gAbOeVXGAABgWghYAAWE5KiAZWUtPQBAaZ1ct542vfOejKNOnqITf66j9IQEOrt5C22e+yG9XrchrZ/9mty/9/v/kYu/v4wrS8zpM7Rs0mO0fPJUeTzgxecpqFNHGQMAgOkgYFWgNja2NNbRhd5186afvQJog08Q7fWrS8f969MR/3p0UGu7tMebfYPpVVcv6mRjpz4SqspFtRy0HmawAOAGOPv5SZ8QEiJ9YetfnUOnN2wknb29LBusCtsWLKT/5n8i437PzJQeAABMBwGrGFlqbaAVH8VcSt1s7WmWiwet9A6ky4ENaaMWqOa5+9AEJ1fqb+dAbbXAVVd74+5tZUV+VtYUqDUuB95SZ0NTnN3oD586NFF7LlSdFH0eReXmkq2Fhfx8AADKgvdcsdzs4vfuhh44KH1A2zbSV4WNb70jyxlb33kHOXp5qasAAGAKCFjFyDQGLCo+YXlaWtHdDs70pYcfXQxsQKu0YMUBq7sWtOy0N+hcifBgViZ9n5pELybE0MNxETQ8OpR6R16iXlrrqfqh2rUFKQnyOV9x9aQAvLGvUmdUJcHmKNUOAGVkZWMIWHklBCxjFb/4i5ekL06n8eOk5HtF8Khfj6xtbSk5MjL/UGIAADANBKxiGGewrFW+0mmBqb2NHT3g6CpL/tb41KGTAfVpgYcv3e7gRI4WlnQ2J1uqDj4VH0X9I0PI//IZujkqhJ7UHn+uBagVaSm0LTOdjmVn0XGtnVD9Du3aS1oA+z09hRy0zzNe+xpQdQ5mGzap36SzlR4AoLT06v8dxRVIsnVyosYDbpYxLxUsDlf7G7X4K5q6dQu1HXWPulp+vDSx88QHaeKq3+Txqb82SA8AAKaDgFWMJH2e9M21N9mbfIMoPLAhrddC1Qfu3rLkr4vaL7UxI42e18JR54iL1EVrU+Mi6dvUJDqkvUk3fIbSW6J9HLvV3kF6qBqHsgwBi/fQAQCUhT7XeIpi0frOnCEzRyf++JOSwsPV1WuF7j8gFf8srazo/qU/yMeVh1+rljRy/oeGs7AWfUEOnp504KefacnY8eoZAABgKghYxUjKM8SjulbW+TMZR7OzZIaKZ5vuiA6loNCzNComjL5ISaBzJjgri8Nahl5PrbSvx3uzoGpszUyXfqC9oyz1BAAorZRow3K71ndeW4adz8XqN+tpGW96933pS8IV/7Z+ukDGQ999m/o+/ZSMy6LZoIE0fsUyevrwAer5+BQJd6c3/k0/T3yYvh99n3oWAACYGi9kQCvUvvX018fUaaSf7Oymb6Gz0dtaWBT5PFO3H70MX/duB+ci76NVTlvpHSg/h1H4OaChoZWh2bu76+fER+vf12fr7/j0Y72dq6tct7az04/96Ue5fv/SH675uJJaj6mT9e9kpel7T3+iyPvFtU7jx8nX4/Zebqb+js8+0Qe0bVPkc9HQ0NDQTNf41/M8gELmuvvQOEcX+iQ5nmYnxqqrFY+LXDzu7E7zta/7WiV+Xbgal9fnCpC8T46LkQAAlJYWhGj4XMMMVWZyMsWdv0AOnh7kGhgoj99r2abYMu6mFNi+Hd3xyXw6umq1LDdMi8X/UwAAKgOWCBYjItdw4KxPJVf0O6WWGrZAgYUq9V1qkhQgaaazkcImAACltWXeRzS3bQc6vvYPsnV2Jv/WN0m44qIWXw4aWinhioXu208fd+9Ff7/1DsIVAEAlwgxWMfhNNRe0+Ccjje6KCVNXKx4fNsznYfGBtx0iLqqrUBVGOzjTJx6+UlGyT2QInVbl2wEASsvezY08GtQnZx8fOvHnOnUVAABqM8xgFSO8imawLquvywcS26DAQpXigiY/a41/Dm+74yBOACi79IQEmUlCuAIAMB8IWMUIyw9YVtJXFg52xkOOG1vjoNuq9kxCtFSI7GPrQJ97+KqrAAAAAABFQ8AqhnEGy8vSiio3YhGdV/uwmuhQqr2qJefl0cTYCCnbf5eDM73uhpksAAAAACgeAlYxYvNy5UwqVtnLBM+qgIUZrOrhcHYmPRwXIeNHndzoWRcPGReluc6m0gM5AAAAAFQfCFglCK2iZYIntDf0DAGr+uBDoI0h62ktYE11dpdxQXxA9L++wfSDV4C6AgAAAADmBgGrBJdzDTNJ/pU8g3VCVatrokPAqk5WpKXQk/FRMp7t6kljHF1kbHSznYP0xuWlAAAAAGB+ELBKEJJjeKMcWNlnYWUblwhiD1Z1831qEr2qDoD+2N2H+qtQxYwBi2e7AAAAAMA8IWCVIETNRARUcsA6p2awuDx4PYSsaufj5Hj6NDlBxgs8fKmB9jPytLSi7rb2cu1vBCwAAAAAs4WAVQJj0GlSyXuh0vX6/DLxjRCwqqVXEmNoZXqKBKuFHn7Ur8DsVZo+T8YAAAAAYH74JFtDqTy4BheZ2O4XTJdysql9xEV1tXIs9w6k3rb29HxCDH2RYpgtqc54ts1Ba/YWltLbac1WG3Ov0/6a6bS/afwcK23MJUMstTH/5St4lLLxL6LxGvccVfLUnVyt48e52uM8bcw938mVe3rpC+KP44+R+9o4Rz7e0OdovXwu9XE8zpGx4bFhbOiLi0u22p9htXcdamdjK2dl8UzWC9rPa2EN+HkBAAAAQMXg97D8HhWKcSGwATlpQaFl+AWKrMTiBe+6edMEJ1f6MiWRnkuIVlcrh5ulpZSm97a0MjQrK/LQej4TzEMbu2qvh4v2HFftsYs2dtbGHKRqqyvhy+DP9NT8ioL8Z1/s4Ud91QxW14hLdEbNfAKYo84TH6SeU6fQLw9PopA9e9VVAAAA84GAdR2LPP1opL0TfZAUR29prbI8rIWrt7SQtSEjjUbHhKmr5cMzSFywo47WeF9ZoLWh97HUwpQWnHy0wOSrPa7NYckULuRkU8dCM5pc7IJnyzZnYv8VmLcR8z6gXk9Oo8hjx+nj7r0oIzFR3QEAADAPCFjXwYULVnoHUkJeHrUIP09Z+sp5uQbaO9L3nv50NDuT+kSGqKslc7W01MKTTgJUkBaegrQxhyh+zM1Pa5WFZ3sy9Xla01O29pJlaX/NeBYoW+v5MS/RMzw2LNPjuUHjcjxe+MevMjdeCsjXeGmfPObrcu3KY278ObgvyLhEkL8Wfz+Fv45cV59flgZqY+NSQunVc698rOFrHsvOkpAFAEV77J+N1LBPbzr6+0r6acLDlBZXeb+cAgAAqGoIWKVg3A/1eHwULUlNUlcrVmudLf3tG0QxebnULOy8hCeeXfKztJKgxE1mo/IDlE6eUx6JWoiM174eh8kErU/SAlKSNuaWoo2lyVhPyepaujQ9ZWit4DhbawBgntzr1qXHt20hl4AAysnIoC3zPqJ/P/qYkiMj1TMAAABqLwSs6+Cgw1XirLRX6pe0ZNqXlUGRuRxCcrUwkiezJDwDwi8iF2/gIg6W2nP5heVmqf2TP9Za63mJno3quRCEAxeE0J7srPY0yb4mCysJShygBqh9PVyVjp97I6K17zUqL4citD5a+56jc3Okj9Eex2o9Nx5HaX1lzc4BQO1Xr3s36jfraWo5Yrg81mv/veSQ9c97H1BSeLhcAwAAqI04A+BddQnudnCWs46qGw5GHJq48EaENO2xBKkcCYDGnpe1AQBUlfo9e1CvJx6n1nfdKY/ztP8uccja+MZblJmSItcAAABqEwSsUmhjY0utdLbUQmejNVtyt7QkN0sr6bkEOc9IlRXv6+EZI96jxEvrUrWWpo15OR4v1eMZMg53/LlfSoih87nZMtPEs0/hWnjCbBMA1CRBHTvQzc8/S61uHymPU6KjacOcN+i/jz+VxwAAALUFApaJGEMWL+Qzxq3CLyw/Lq4gQ1GMJeKbhJ2nOC1YAQBUF66BgVSvR3fyqF+PHL28pFnprEnPv/zRmrE/+89m2v3Nt+qjiJoNvI36P/cMNejdSx5veP1N+vOlV2QMAABQGyBgVWPhgQ1JpwW34NBzsg8LAKCqdRh7Pw148XnybtJYXSnZpZ27aH7XHurRFe3GjKb7fvxO9ma9Ua8RJYSUrloqAABAdYeAVU1xwYzIOo1k7Hv5jCwpBACoasPef5f6zJgu51td2Ladwg8fodToaEqNiaGcrGyysLCQpv1D+sv79lHEkaPqo6/GAYuD1ua5H9KqGTPVVQAAgJoNAasa2+ATJOdGDYq6rK4AAFS9gDatKezgIfXoxt3y0gt022uzsUwQAABqlfIdnAQVakBUCMIVAFQ7pghXzNHbW3oueAEAAFBbIGBBuT3i5EabfIOopc5WXQEAuL5G/ftJH33ylPQAAAC1AQIW3DA+GPkLD196082LbtLCVUNrnboDAFCy4C6dya9lC0q8fJlOrluvrgIAANR8CFhwXZ6WVjTW0UU9MrAmC1rhFUh3ODhLhcPJcZG0Mh2HhgJA6XR/bJL0h5Ytl94c2Tg6UpeHJ5K9m5u6AgAAtQGKXMB1zXX3oXFawNqXlUEvJMTQbq3/zMOX7tHC1ZHsTHooNpLO5GSpZwOAOeHzrDqOG6seXS3mzBn6++131aMrAtu3o+l7d8n4rYZNKPbceRmbg/q9elK3SQ+TZ8MGFNiuHVnb2sphy79Ne1I9AwAAajoELLiuzjZ29J67d/4eq02ZadTP1oFytL86t0ZepkNayAIA83TXwgXU9ZGH1KOr5WRk0LP2zurRFQ+tXUXNBg2kfz/6mH5/8il1tXYLbNdWqia2un2kunLFtgWf0/LJj6tHAABQ0yFgQam97uZFjzpdWcryUXI8zUmMVY8AwBw5eHpSqxHD1KOrJYRcplN/bVCPDDo9+ACN+noRpSck0FsNm1JaXJy6U/04eXtTu/vGUPt7x5Bng/o0t12nGzoQmcPVw3+uIScfH3WF5PywsIMHqcP998kZYq94+6s71+dRry61GXUPBXXsQIHt21NKVBSlREZS6IGDdHTlKgrdt189EwAAqgICFpTJb96B1NPWXj0iejguglakYe8VAFyfd5PG9Pi2fyWU/T59Bv374Xx1p/rpMXUy3f7xR+oRUXJEBM3r0IWSwsLUldJ79vQJ8mrUUD0y4CB08OdlNHL+PHLw8KDZvoESlEpiYWlJQ95+k/rOnKGuFC1kz15aP/s1Or5mrboCAACVCQELSq2Fzoa2+AbL0sDvU5NovKOrXB8VE0YbM9JkDABQFA4HU//bTHW7daUzm/6hz/vfou5UPzyrNOa7b2TMM3A7v/yKDv6yTB6XlfEw5eJEnThJPs2a0qe9+tL5/7aqq0UbMe8D6vXkNPWIZO/a7q8X0+m/N5Gzry81ve1Wajl8KLkEBMj9A0t/oqXjJ1JOJpZxAwBUJgQsKLXB9o70rac/rc9IpXtjwukNNy+apJYMzoiPpj8yUigqN1ceAwAUdP+S76nt6FGyNPCjTl0p5sxZdad6Ce7ciabt3CZjXrrn6OUl42Or19A/731A57b8K49Lw9Lamt5MjidrOzt1pXh/vvQKbXj9TfXoWrwc8IndO2S8bNJjdPafzRR96rQ8Lqz/s7PotldfISsbGzq9YSMtGjKccrNQiAgAoLKgTDuUWj11ztX5nGzpuaLggpQEGX/g7k3H/OvTXz5B8hgAwIiXtXG4Yj9NeLjahivW5WFDwY7NH8yjOUH1ad3LsykzOZlaDB1Ckzf/LTNwpdV8yOAiw9WJP/6kbZ99ToeW/aquEPV7Zqbs1SrOrVpgYryscscXi4oNV4wrN77XsrU8p/GAm2UWDQAAKg8CFpRaD7X36kDWleUmL2kha2ZCtFyLzculTD0mRAHgilYjR0h4YGufe4GOrPhNxtURz1Z1eWiCjHcu+kqqIP415w0JWls/XSDXG/fvJ31pNB88SI2u+LBDF1o0eBgtn/I4fXv3aIo8dlyu2zo50fC578u4sHb3jpHPlR4fT+tfnaOuloxD7K+PTZFx+/vvkx4AACoHAhaUmjFgbc1Ml95ocUoiDYgKoaZh52lo9GV1FQDMHRdvuOOzj2V8ePmKIs/Eqk54/xLjfVe8N8ooIzFRe3xCxm7BwdRnxnSauPp36vboI3KtOO51g9XIQJ+XR5f37VOPDC5s2y59bnY2Nezbh7ybNpHHBfV5ynBGFoc8XmJZWuc2b6Hs9HSpOuhap466CgAAFQ0BC0rlLgdncrKwpMPZmRSWm6OuAgAUb9gH75GLvz8lR0bS8ilXijNUV/t+XEpJ4eHU5JYB9OjG9dT9sUnUY8pj1PPxKVS/R3d5Dp/5Nez9d2X5350LPpX9TsXhP7sRhzQu9OHVuJG6YsChixkDXHDnztIXdGnXbum5kmFZNB86hHT29nRx+w5KvIxffgEAVBYELCiV8Y4u0n+TkiQ9AEBJ2txzN3UaP07GK6c/XeZwUBV4SeC6V16VWaJG/fvRHZ99Qrd/Mp9Gzv8wfw8Zl1Lf98OPssSPdRg3VvrC+Nwsv5tayZiLZZxc/5eM+YDlgmwcHaTPTjOsDLC2tZG+IAcPd+l9W7aUvjR4pu1ONXvIBToAAKDyIGDBdXW3taeuWuM9Vt+mJqqrAABF41mTIe+8JeNdXy2m/UuWyrgm4JLsfCbVb9OepO2ffyEFJfgaO73xb7n34/0PSJGKuPMXyLd5M1naV1hudo4Ux2BpcfF0+NcVMh7y1htyHhhrfHN/an/fvTI2VvmztrWVvqBN77wnPc+odZ74oIxLwq//qK+/lHLtR39fSRvffFvdAQCAymClteIP6ADQTHfxoDY2trQgOYH+LbT/CgCgMK4a2HzwQEoICaHFI+6ocecw6XNzZVkeH9QbfvgI3fPVF2RpZUUrn3qaok9e2ZvlUa8e1e3ahSKOHJFleAVlJCVJ+Apo04YcPT2lrHqmdi2wXTuZ2fNp2oQGvTGHrHSG6qxuwUFkYWFBq5+eJTNeBfHsH++l4qWLLYcPI0dvb4o9c4bSYuPUM64IaNOaJvy+gur16C5VBL8efrt8LAAAVB4ELLiu6LxcStPn0dzkeMpClUAAKAGXGh/9v69lvGzS5GuKOtQ0dy74hALatqH9Py65ZiaIz8xq1K8vRWgh7JRaAliQf+ub5D7jKoA/PzSJbBwcqE7HDvI5OVylxcaSTrvG4erIb7/T1k8+k+cXdmHrNtnLxuXi+evyvjDPRg1l+SAHrnrdu9PNzz8jSxp579elnbvo27tHUWJoqPoMAABQWXDQMAAAmMwj6/+QmZYDP/1M34+u2eXBO4y9n8Z8u5iy09Lo3RatKf7iRXXHoO/TT9HQ996RJYS/PPKounoFh6EJq66UpQ87eIg+7NCZgrt2Ib+WLah+z57a1zC8RklhYbSg34ASz7diHNp6T38yf39bUTik/T59BuXloCARAEBVQMACAACT6DltKo38aB6lxcXRB63b1+jZEy4xP+v4YXLy8aHlk6fStgUL1Z0rBr7+Gg144Tn65/25tHrmM+rq1d5IiiNbZ2dKjY2VpYJ7v/+B7N3cZGbLxtFRnpMaHU2Lb79LZqlKy7dFcwmyDXr3ks/Ps1sJl0KklDuHNQAAqDoIWAAAUG58ftPMIwfJ0tqalox7kPZ+9726UzPd/eVCOXSYK/B9PWykuno1Xo7HZdz/fOkV2vD6m+rq1bikO5+bVZxzW/7TPv8I2bMFAAC1A6oIAgBAuQ3/4D0JVxysanq44up+HK7Ymmeek74ofq0MZdNjz56Tviirnp5F3941ihJCrj6Hat/3P9K7zVvRZ336IVwBANQyCFgAAFBuXE2Pz4haNaP4g3driu6TDfup1r86hyKPHZdxUep0aC99yJ490hfn0K/L6fXg+vSCi4eUfmcn162nqBNXKhICAEDtgSWCAABQbq516mj/N9HX+Kp1ng0b0HNnTpI+L49e9atDKdHR6s7V6vfqSVO2bJKS6q94+6urpcOVFkP3H1CPAACgtsEMFgAAlFvi5cu1oiS4Z4MG0vO5VcWFK9Zn+hPS7/thifRlgXAFAFC7IWABAAAofOAv40qIxRn67tvU6vaRUgZ90zvvqasAAAAGWCIIAACg8FLHl0LOy/iXhyfRxe07KDkyinyaN6PG/ftRh3FjybNB/fz7OxcZDlWu6Tzq1SX3unXl0GInH29y9PIiSysrstAanwPGs3mxZ87SmU3/qI8AAIDiIGABAAAUcL3S6hFHj8m5Vyf++FNdqRm8Gjcin2bNyKtRQ23cmLwaNiCPBg0kMFpYlm5By+vBDSghJEQ9AgCAoiBgAQAAFNLz8SlykC8HEp7R4Yp/kcdP0P4fl9CpvzaoZ1VPXKjDv3Vr8m3eTGbe/Fq0kIOJre3s1DNKlpuVJWXlM1NSKCs1lXT29uTk7UXxl0Lokx691bMAAKA4CFgAAAA1FC/tC+rcmYI6dZQW0KY12bu5qbslizlzliKPHaMoLThGneB2kuIvXpJQlZ2eTrnZ2eqZAABQFghYAAAANURA2zZUv2cPqte9G9Xt1k0C1vVwhUde1shnenGgijhyVJq9u7vMbPHn5GDm27w5eTdtIjNWjPeffdy9l4wBAKD0ELAAAACqKQ4/Dfv0pga9e0nv4Omp7hQt5vQZCt2/X0rBhx04SKFay0pJIb9WLcnvplbkf9NNEqa42bm6qo+6WkZiooSskD17sSQQAOAGIGABAABUE4Ht21H9Ht0lUHFz8vFRd66VHBFBF3fspEu7dtPlvfukpcXGko2jIzUbNJAa9u0js10cpoqSEhUlywLDDh6SUMazWtEnT1FGUpJ6BgAA3AgELAAAgCrApdCDOnag4C6dpdXt1rXE/VMchs7/t5UubN1K57duk9kqIwcPD2pzz13UcsRwajbwNnX1Ci6zLiFsz14K2b1HWlJ4uLoLAACmhIAFAABQgfg8Kd7b5NuiBfm11FqrlhTYrp1U+ysJzyyd//c/CVXcEkND1R0DXsbHBx63vvN2uumO29VVg4RLl+j42j9lH9WFbVoYO3NW3QEAgIqGgAUAAFBOroGB5FpHa1rvUb+e1upLAQrvJk3k/KnrycvNpZBdu2Vm6oJqPOtUGJ9Z1XjAzdT45v4SqiytrdUdLVSFhND+JT/R0ZWr5OMBAKBqIGABAAAUw8nbm1wCA8g1IIBcAvy1pvX+Wu/vR85a76qulfagXqPwQ4fzi1Hwcr1LO3dJyDLivVduQXW00FZHKv0FcqW/tm21wNZYPcMgJyODDv6yjA789AsdX7NWXQUAgKqEgAUAAGbnvh+/k//7bXj9DXKvV09mm9yCgshVCzXcu2nBxlULVqU9nLco6QkJFHv2nNbOUmpsHKVpLSs1RQ7ytXV2lv1W9u7c3MlBa/YeHuTo5UmOnp5XzUwVlhYXR6fW/0XHVq+VcMWfDwAAqg8ELAAAqPUC27VV5cnbkHfzZtTstlvVnRvD1fqSIiIpOTxcikUkhobJeVPcW9vZaoGtPvm2aCZfz7/1Teqjbkzc+QsUsmePFKngPVXntvyr7gAAQHWEgAUAALUOF5Jo1L8fNerbhxr261tidT6WGhNDKVHRUrqc9z6lRsdQqhai+HpqjLFXz4mMpNzsbPWRJGdTNR80kJoNHih7o0oqrW7Es05p8fGUFhdP6VrPjT9/shbaJLBdDqWYs2cp9sxZykxJUR8FAAA1AQIWAADUCs6+vjTojTnUSAs5vOSvIN7fFH7wEIUdOkzRJ09S/MVLFHfhgsw48XlSZV1mx2dUcZjiEMdnTRWFZ57CDh6U/VYRR49JcEoKC9MCWhRCEwBALYaABQAAtUK3Rx+hOxd8KmOeETq7eQtd2LZdltVxK1hEoix4P1S97t2onjoAuGGf3lIivTA+pPfMpn/yy6rHX7yo7gAAgDlBwAIAgFqjy0MTKOzAQQrZs1ddKTue/arTsaPh8N+uXeQAYD7LqjAui877oTjIndWCFc6aAgAAhoAFAABmi2emeL+WX0ut3dSKAlrfJHuqinJp1245q4pLql/csQOBCgAAioSABQAAZoPPlGo28DbZp8UFMHQODurO1XjP1OW9e6VyHzcOVgULWwAAABQHAQsAAGq1oe++Ta1uHymHA9s4OqqrBmEHD1Hk0aMUfeo0RZ08RZHHjmntOOXl5KhnAAAAlA0CFgAA1GqP/v0XNerXV8bJkZF0ct16rf0l+6a4sh8AAIApIWABAECtZmFpSV6NGmphKoIyk5PVVQAAgIqBgAUAAAAAAGAilqoHAAAAAACAckLAAgAAAAAAMBEELAAAAAAAABNBwAIAAAAAADARBCwAAAAAAAATQcACAAAAAAAwEQQsAAAAAAAAkyD6P0T5hEyhKjpmAAAAAElFTkSuQmCC;" vertex="1" parent="1">
          <mxGeometry x="-340" y="30" width="856" height="370" as="geometry" />
        </mxCell>
        <mxCell id="7iEGw0b0Vgs6ElfTRchU-5" value="" style="shape=image;verticalLabelPosition=bottom;labelBackgroundColor=default;verticalAlign=top;aspect=fixed;imageAspect=0;image=data:image/png,iVBORw0KGgoAAAANSUhEUgAAA1gAAAFyCAYAAADoN3vRAAAAAXNSR0IArs4c6QAAAARnQU1BAACxjwv8YQUAAAAJcEhZcwAADsMAAA7DAcdvqGQAAG7mSURBVHhe7d0HfBXFFgbwk957B0JHeq8KiqJUsYBKEVQEQREUEXtFRbE+FbEColgoCqgUAVERpEtVem/pvff79pw7m9xAgCTcJLd8//fbN7O7N5DEC+yXmTnjQEQG7QAAAAAAAIAr5KhaAAAAAAAAuEIIWAAAAAAAAGaCgAUAAAAAAGAmCFgAAAAAAABmYndFLjq5utNEH38KcHSiv3OzaUV2Bu3Pz1N3AQAAAAAAKs/uAtbb/iE02ttPnRktyUqnl1ITKaawQF0BAAAAAACoOLubIujpaPySJyTF0jeZaZRlKKLBnj70d1hdGu7lK/cAAAAAAAAqw/4ClgMP2pEWrAw0OTmOesSeoWXZGeSvBa+PAkJpnLe/3AcAAAAAAKgouwtYxnhV4nRBPt2fGEOvpSbK+Rv+wTTZJ0D6AAAAAAAAFWF3AatArThzPi9pfZieTM+kxEv/eb8gGuVVep0WAAAAAADA5dhdwCpSNT2cLxjLIpqdkUrPqpD1bkAIDfTwlj4AAAAAAEB52F3AyjYYA5a7Wot1vllayHovLUn6XwSGUVtXN+kDAAAAAABcDgJWGaZrAev7zDRy1V7zcUAY+arKgwAAAAAAAJdid8kh01AkrZfDpb/0R5PjaHNuNjVzcaVPtJAFAAAAAABwOfYXsIpUwCrHqNQELWRFFxZQPw8vmuYfrK4CAAAAAACUze4CVkbxCNbFpwjquIT7w0mx0n/I2x97ZAEAAAAAwCXZXcDS12B5XGaKoG5DbrZsSMx4j6y7PH2kDwAAAAAAcD67C1g5xQHr8iNYum8y04orC34aGEY3uXtKHwAAAAAAwJTdBiy3CgQsxpUFF2SlS//b4Ajq6YaQBQAAAAAApdldwHKpWK4qZWJSLK3NyZJNijlkXe3moe4AAAAAAADYYcDyVGuvCowDWRV2f2I0/ZOXI1MMF2oh61qELAAAAAAAUOwuYEU4OUurVxOsKC6ScX9iDB3Iz5OwtjC4FvV291J3AQAAAADAntldwGrq7CrtiYJ8aSuD98YamRhNRwvyyNXBgeYHR9AgT291FwAAAAAA7JXdBaw2rm7SnryCgMVOaR8/PCGajmghi80KDKd7vXylDwAAAAAA9smuAlYTZ1dq5Owi/e15OdJeCR4FG6aFrEP5xpD1v4BQetQnQPoAAAAAAGB/7CpgXe9uLEjBgYin+ZkDj2QNTYii//Jz5fwlvyCaqh0AAAAAAGB/7CpgdVMV/7aZYfTK1FktrN2lhawd6ted6BNAMwJCpQ8AAAAAAPbDrgJWV1d3aXfnGUebzCm+sJCGaCFrU262nN/t5UvfBUeQewU3NAYAAAAAAOtlNwGL11+FqxLtu/PNO4KlSy0qoju1kMWbEbO+7l70U0htqqN+XwAAAAAAsG12E7DaqeqBvPvVv1UwgqXLMxhomBaylmdnyHknV3cJWW3V7w8AAAAAALbL7gIWbxBcuS2GK2ZUYgwtykqXfn1nF/opuDbd6O4p5wAAAAAAYJvsJmC1dTGuvzqgqv1Vh4eTYunrzFTp+zg60sLgWnSXp4+cAwAAAACA7bGfgKVGsPQ9q6rLlOR4+jQjRZ0RfRoYRg95+6szAAAAAACwJXYRsFq4uJKHquZ3qKB6AxZ7MSWB/peWrM6IpvkH09O+geoMAAAAAABshV0ErJYuJQUmDlbzCJbujbREOXRPagHrFb9gdQYAAAAAALbALgJWcxdXabnC3/GCfOnXBB7F4tEs3QQff3rLP0SdAQAAAACAtbOrgHW4BqYHno/XY01OjlNnRGO8/ej9gFB1BgAAAAAA1swuAtZVzsaAdawGR69MfZOZRmOTYtQZ0T1evvRxYJg6AwAAAAAAa2XzAYuLW9RzdpF+TU4PPN/SrAy6JzFanREN9fShTxCyAAAAAACsms0HrCZq9IqdsqCAxX7NzqQhCVGUbzDI+RAtZHEZdwAAAAAAsE62H7DU+it22sICFvsjJ4uGJ0ZLAQ7GGxHPwJosAAAAAACrZAcjWMbpgexUYYHqWZZ1HLISootHsu728qX3AlBdEAAAAADA2th8wGqoAlaRdljiCJbur9wsGmmyJus+Lz96FftkAQAAAABYFZsPWPVVwDqphSvj+JDl+j2ndMh62MefnvINVGcAAAAAAGDp7GAEy7gG64QFj16ZWpWdSeOSYtUZScAa7+2vzgAAAAAAwJLZdMAKc3Imf0fjl2jJ0wPPtyQrvdRmxK/5B9NwL191BgAAAAAAlsqmA1ZjKyhwcTG8GfHU1ER1RvRRQCj18/BSZwAAAAAAYIlsPGBZdon2y5mZnkwfaIfuy8Bw6uLqrs4AAAAAAMDS2HTAalRqBMv6AhablppIX2emSt/VwYG+DAovFRwBAAAAAMBy2PYIlktJwDpdYF1TBE1NSY6nZdkZ0g93cqY5WsgKcnSScwAAAFvRqOd1NPTL2eQTFqaulK3P1JfopuefVWcAAJbFpgOWvgdWalERJRcVSt9ajU6Mob9zs6Xf0sVVQpaDnAEAANiGdsOGUuf776PWg29XVy7k6OxMfV5+kXprBwCAJbLpgNVATaU7Y6XTA03xHl5jtJC1Lz9Pznu4edBcLWQBAADYirRo416QPhER0uo4VDUf0J/6vfYK3fHpx+oqAIBlstmA1cDZhfRJdGeseHqgqcSiQhqdGE1RqiLiQA9v+iAgVPoAAADWLj0mRlr/yEhpWZMbe9ET/+6mMSt+oZteeI66PjBarju5uNDYVSuofvdr5BwAwFLYbMCqZ1LgwhZGsHTHCvLp/sQYyjIUyflIL1961S9Y+gAAANYs9sBBaUObNZX22scepQfXrpbzE39vpD/ffpeWTnxU7hXm51PTvn1o4t9/UZfRo+QaAIAlsNmAFenkrHpE56xsD6zL2ZGXIyFL97CPP03xDVRnAAClDXhjGo1f9zs5u7mpKwCWKf7gIWnDmjeTtv3wYdL++dY79PG119OKp5+lLbPmyDUHBwf6e8ZM6Q+ZM4taDx4kfQCAmmazAauuyQiWPqXOlvyek0Vjk0pC1rNawBrr7afOAABKXNWnt1RnC2vZQl0BsEwZ8fGUcuYMufv5ydTAul06U352Nv36fElBCw5W0jo60k+TJtOGDz+S83t/WECBDepLHwCgJtlswKplMoIVZSNrsM63NCuDJifHqTOi6f4hNNTTR50BAEBVqNOxA3UYcbc6A3M7t3OXtB3vGSnt/uUrqKjQpBKwClh6+/Njj9OeRT9I4Or76lS5BgBQk2w2YIU7lewTFWPlJdov5ZvMNHoxJUGdEX0cGEb9PbzUGQAAmNsdn31Cd3/7NYorVJFzu3ZL2+j666Q9sHyltJfCI1wGg4E6jhxBzfr1VVcBAGqG7QYsx5IRrGgbnCJo6tOMFJqelqTOiL4KiqDubh7qDAAAzMnJ2fjvCxdXuP7JKdIH89EDVkC9etLuW7Zc2ktJOHqM1rz8ivRbDbr4HloAANXBZgNWqBrB4g2G8wy8i5Rte08LWB+kJ0ufv/KvgsKpjQsWtAOA/eJS31x9rnaH9lSrbRt19cr0nDKZarVrq86IBkx/XfXAXM7t3qN6RAdXrabsZOO/bcXUv+m8FsvF01P6TA9iLW65WVoAgJpikwHLRftLN8DRGLCSiozlzO3BtNRE+jwjRfr89XPIqm9S7AMAwFRk50509YNjyTPQtqqQBjVqSBM2rKMXTh+npw78R5N3bKPHd++gkKuaqFdUXtu77pQ25fRpaQ8sXyEtmI++F1ZhQQHN7j9Q+qYKcnMpdv8B6Ue0aikti9KCmUH7N983IkLWYwEA1BSb/BsoRIUrlmDD66/K8nxKAs3LTJM+V1L8OiiCgk2+HwBg39rceQeNWvojvZoYS5O2bZb1RH2mvqTuWj+uPPfolo3UoEd3CUFxBw/R2R07pVBC/OEj6lVl86tTh4Z+OZvqX3O1ulJaROtWVLdrF8rPyiL/unXl2u5FP0oL5lOYlydFLXgqJm8mXJbovXulNa2M6erlJcEqLzNTghYAQE2xyYClj16xZNPKQ3bi8eQ4WpiVLv2WLq40LziCvBzw0zwAe8TrWDwDA6Q/dtUKKWXd6vbbZNSKA8f2uV/TjnnfyH1r51urFg2dO5u8goNp74+L6Z2Wbent5q3og05d6ctbLr8up+fjj1Hn+++jdkOHqCul1bu6m7T6tLQNH8ygXd/Plz6YV5Gq/uvk6irt+aL2GAPWNQ+Pl5bxpsMsJzVVWgCAmsI1Tm1ugdK1bh60NKS29OdnptEjJqXM7cmswHAa5Okt/fW52XRX/Dmyv7gJYH9cPDyow8i7qf2wodS41w3qqhGXwP7nm29p308/U9LJU+rqxXEQy0oqKaJjye7/aTG1vO1WOrBiJc0ZeJu6Wj4cml6Ji5JRkA87d6Mz/+xQd0rrdN+9FLt/PwXUrUt7Fy9RV8Gc+P37enoyOTo50TMePlSQk6PulMbTPnlt3anNW2inFnS73D9K1tv9PHmKhF8AgJpikwHrVg9v+jIoXPpcYc+0jLm9mRcUQQNU2fa1OVk0LCFK+gBguyas/5MaXNtD+rxehR9QeePWRWPG0bYv58r18hi97CdqMfBmCWXHN/xNR9b+LlPtLBFP35uyd5dMLXu1Vl3KiKvYD9baDx9GI77/hg6tXkOz+qFIQk0av+532Ribp2I+63XxDfR5Ouiwr78kv9rGH6iymP/20but26kzAICaYZPzxvxMFrem2vk87HsToyVYsZvcPelbLXABgG3jMHR4zW+0cPQD9IJ/sJSwZud2G8tfl8e1jz0q4YqnavGowLWTHpHphZaq27ix0m75YnaFwxXTKwOe3LRZWqg5+dnZ0l5sFFF35Pc/6LU69WnpI5Pov59+pu/uvofea9tB3QUAqDk2GrBK1mCl2lmRi7KMSIiidSpk9fPwklEtALBdvOnqF30HyPqqi02vuhQu8nDb++9JXw9nq1+aSiufe0H6lqhOp47S7ln0g7QVVVsFLK5EBzUrQRUjObP9H2kvZ+PMT+irQXfSrvkLUNwCACyCTQYsf5MRrBT8ZSvrrkYkRtPfucafCvKUwW8QsgCgDLzuZfAnM6W/+fNZxQUyuGre+vc/lL4lClfluvXy3RVVq71xWpnpHkxQM/b9soyO/rmO/l36k7oCAGBdbHMEy6Rinr1PEdTlGgx0d0I0bVIhq78Wsr4LjpBFeAAAOi7bzoUDeC3L0omP8m6ucr3hdddKezG8BorDWU3gDWfdvI0FfSpTkIP3zfIOCaG06Oji/a1qSvcJ46nHIxNKHXzNnvDUv8969aaTGzepKwAA1sVGR7BK/pFPM2CKoC7LUCQha4sKWX3dvWhBcC3ZmBkAbJd3aIi0WYmXDh8d7xlJXR8YLf0fH3pY1l8d+3OdnPMmvZ5BQdI/H1cq5AITXJzghqeeoNpqNKi6lNpU1lDxuk11OhqnF569zJqfqtZ17BgaNHMG3T7jg1IHX+PqhQAAYB1sMmD5osjFRWVoIWt4Iocs47qMG909aaEWstwRsgBskqOzM/mEhUk/PTZW2rJwlcGb33pD+sueeKp49ODgr6ukZb7hxl/nfL2eeUpa3tz35rem0+Sd2+m6yZPkWnUoFbBMeIeGSqGOjiNHqCtli1Trt3hD4pq0Z9GPtOHDj+jvGTNLHVxynPf1AgAA68E/7rOpY01oHUNCncZy1HJyLvM19n5oIdSwwuT79HNIbYO3g2OZr8WBA4f1HlrAMLxryDc8umVjmff1487PP5XXjVvz6wX3njlyUO51uu/eC+51nzBe7k2Ni5LW9Gg75K4LXl9Vxyvx0fJ7BjVqKOe3vf9eqc9lwPTXL/gY/Rj/51p5TfMB/cu8jwMHDhw4cFTksPkpgihyUbY07fsyPCGqeCSru5sHLQiOKDX6BwDWr2nfPtIeXLVa2oup27WLtMufekZaU9nJydLe8clHFNL0Kukz3quIp68xruSm+/Otd6QdMvtzCm3WVPpVLV5Vngtp0oR6Pv6YlJlnXCyB8Sgbj2iVJbJzJ2nLW7UOAADgUmw0YBm/rDyDQdYdQdkkZCVyyDKuyeqmhazvg2ohZAHYkNNbt8l0v70//KiulM07JFjazPgLN2b3jTBu3O7i6Un3Lf5B1gP1feVlWXPFeAobr9fSFWr9w7+tJTcfH+rz8ovqatVKOGIMWJFdOtMt7xkD3sL7x0ixhH+XLJXzLqNHSWuKC3q4enlR4vETlBEfr64CAABUnk0+SQeoESyMXl1euvY9GmZSXbCbmzvND0bIArAVO779jmb26Ekx+/arK2XzCjEWwqjXrau0pnwijNs68B5R4S1b0LCv5lDvl4x7Ym38+FP6efKUUvsPuWvBitdxsXbDhpb5a5rbv0t/lpaDH+N9u7Z/NU/6vB8Ya3JjL2lN6ftnRe9BeXYAADAPm3uK5nCll2tIxibD5cKFLzhk6ftkdXV1p++DIsjbpNw9ANi2P958W9q7v5tHVz80Tvqs5a23SPl1Ltv+v/ad6IdxD8mI2K7v59NXg+8ylnJnpoVytH703n/p748+ltNu48ZKW5X2/fwLxR44KH2eovjba69Ln8UdOiRtUKNG0pqK7NxZ2qg9e6UF28cFXXjksuVtt1Ln++/T3p8PSCn8qx8cK5U029wxWIqjNLnpxotOKwUAuBT+F5EXY9mMxs6utCW8rvR56tvA+HPSh8vjSoJctr2Hm4ec86jWXQlRsocWANi+kQu+o3ZDh0j/6B9/ypS5gLp1qd7V3WjN1FdpzSuvyb2y9Hr2aRrwxjTpr532Bq168WWpzjdp+xZKOnmK3mjQWO5VpTodO1Bw48a0e+EidcWI97l69ughSjlzhqbVbaiuGt2zaD61vetOWjRmLG378it1FWyFk6sr1W7XlmppR2SnTlS3W1fZs628zu3cRe93NK5PBAAoL5sbogh2KvmSkjBFsEJytCDFhS/0kaxrtKD1bRA2IwawF98OG0GLx0+Qoha8txWHLQ5XPLqz6dPP1avKlp+VpXpEGXFx0p75Z4f0A+vXo7AWzeVaVeIy6+eHKxbWooW0sfsPSFsWLmdfk3jKZb/XXikuuGEveAProXPnUOvBg9SVyvEICKD63a+Rfdx4Dd7oX5bS0wf30Vu5mfTo1k105+efyj5jpuEqMyGBov/9T0LUqS1b5Ti9bbu8b3kElgunnMBmxwBQCTY3gnWzhxd9rYUC9m1mGj2WbPyHHsrPw8FB9sbigMVW52TSiIRo6QOA7fMKDqbGN1xPzu7u5OLhTgdWrqLUs2fV3bLxw+tdX3wm/Wn1GlHK6dPS10fFeCohr9eqCfctXiQP8H+9937x2jCdPoL1zZDhtOcyhUCq0tv52cUhjx/sk0+e1L73HmTgYk2JiVoYSKSj6/6SkcX0mBh5nS0Y/PFHdM3DD0k/Nz2d/l36k4QbPtKioykrKVmuO/AUVO3gwilewUHkHxkp0/zkaNeOghtfOP3TFP9aHKRObtosB//QQK+OCQBgbjYXsO7x8qX3A4xzpmekJ9OrqYnSh4rxcXSU6YK8HostyUqncUkX36QUAOwbBxgOMofX/EZf9B2grpKsa7njs09o7+IlNO/Ooepq9fCtpf0d9sBoKXyRm5FB0xs1LR5d03EBjuY3D5ApjTWJC3C0GnQ7tbx1oISHS1nxzHPFpfCtHQema8Y/SK3vGEx1uxjXw10Jno4ad+AAJRw9ph1HKfHYcSnOknoOywUAoPrYXMCa7BNAz/sFSf/l1AT6OD1F+lBxXDBkkRay2ru6yfm8zDR6HCOCAHARXGHw/GqFIVc1oacP7aespCR6KShMXa1aHJqu1h7aO917j7pi3N9r3TvvqTPL1uDaHuTi7k75OTkycuMZFETBjRpSoxuul5HFlc+9IKXxbQ2/f/hrrNOhA9Vu3468QoKlyISTi4t6hRGPPGXExVPcwYPacUimfsbu3y9FTvIyM9WrAABqjs0FrGn+wfSQt7/0JybF0oKsdOlD5UQ4OdMPWshq5uIq5x+lJ9MrGBUEgAp45shBmcL1fofOdG7XbnW16kzeuV0e0NmeRT/Q1tlfyr5cYJ14qqSDo6Mc+dnZpfZcAwCwRLxh1FRj1zYM8fShFi7GEZdvMtPpeEG+9KFyuIT7utws6uvuRX6OTtTVzYOyDQbalpejXgEAcGmZiYmyEfDOb79XV6pWblo6xR86TAtHjaYts+ZQ4vHj6g5YIw5Uhfn5VJiXV2q/NQAAS2VzI1g82nKDu6f0+8edpe0IAmbRRgutS0Jqk7/agPjR5Dj6PjNN+gAAAAAAYGSDZdp5UM4oGT/pMpu9+bl0f2J0cRqfERBKN6kgCwAAAAAARjYXsLgwgy6lqFD1wBw25GbTA4kl5YHnBIVTazUdEwAAAAAAbDBgBaopbCzNgBEsc/s5O4OeSomXvpeDI30WGFYq1AIAAAAA2DObCljuXM5We+hnXIghTzvA/L7MSKW30pKk39TFVUIWAAAAAADYWMAyHUlJw/TAKvWOFrBmaUGL3ejuSR+qzZ0BAAAAAOyZTQUsvcIdS8f0wCr3bEo8LVH7jI3w8i3e4BkAAAAAwF7ZVMDifZp06UWYHlgdxiXFSvELNtknoHiTZwAAAAAAe2RbAUutv2K8QS5UD64seCA/T/rT/INls2cAAAAAAHtkYyNYJgELe2BVm8SiQhqTFEOxhQVy/klgGA3y9JY+AAAAAIA9sd2AhRGsanU4P09CVq6q3DgrMJxu9UDIAgAAAAD7YlMBywcjWDVqS24O3ZcYrc6IvgwKx0gWAAAAANgV2wpYJmuwUEWwZqzNyZLCFzoeycKaLAAAqAmRnTupHgBA9alwwOrg6q56lsd0BCsdI1g1hku3P2wSsnhN1j1evurMvpn7z89AD2/6WPv+Hq/VkDaH11VXAQCg4z0jadK2zXTLu2+rKwAA1aNCAYv3OloTWodestD9jkxHsLAGq2Yt0kLWRJOQ9X5AKI2z8xLud3r6yJ8frrR4pfq4e9EK7df6Kiichmq/rq+jI2FnAgCwdY2u70l3ffEZeQYGqisX5+rpIa2bD2ZRAED1qlDAcndwkNbTJMhYEtN9sDJUsQWoOQu0kPWgSch6QwsWE30C1Jn9KSTjezLM0VnasnRzc5cwGuJU8l42Fapdn6uFqu+DI6irGg2bm5FKQxKiqHvsaTkHALBVHUeOoK5jx9B9ixeRo/PF/y5lDmpWi4N6dgEAqC7VlpRqOTlTVf8VZzpFMBNTBC3CYi1kceELPe5O9QuiKb6X/8mjLUpR70l/k/fp+e7w8JHplO/6h6orJbgq41+hdekWVZ2RA2ynmFP0ZEo8/ZGTJdcAAGzZqhdfpph9+2Uki0PWJenBCgELAKpZlQcsnr60PKQ27Y2oT/F1GtMfYZEX/en8lfLFFEGLtCI7k+6IP0dpKmA8qwUsPuxNSlGhtAEmI63nez89WfYVu9nDix41Ge17Uvt+cVVG/rMTU1hAIxKiZQrmyYJ89QoAANuXFh1NX99xF6WcOUMtb72F7pr1ubpzId+ICGkzExKkBQCoLlUasD4MCJUF+N3cPChZPVy2cXGjeUHGv/TMjdeh6FCm3bKsz82mOxLOUbTajJhHsSx1LV9VOZxvDEOtXF2lLUuU9v15Ijle+vz9aeDsQjO0P0dPq0C6UgurN8SdodU5mXIOAGBv4g8dpnl3DqWiggLq+sBouun5Z9Wd0oIbN5I2PSZGWgCA6mLWgBXm5CyhiteRLAiuJUUx2AspCdQi+iQ1izpBpwvyqbOrOzV1ufhDZmVhBMuy7crLlbVCp9SoC4/QvGBHIStTe08eKcgjnizb4hLv/2XZGXRcfY8+Cwyju9Wfo08zUujexGiKLzT+sAIAwF6d3rad5t97v/T7TXuV2g8fJn0dj161GzZU+kd+/0NaAIDqUqGA5abmMeddpIDEfdqDIIeqMV7+dJO7J3HE4QfCz7QHw3ztYxKKCilOjWRFamHMnPgLQZl2y3cgP09Clh4gHtNClj46Yw/096X3ZQrF6Ou0OqpCFs+lJNCL2gEAAEa75i+gVS+8JP2hX86iWu3aSp/1eGSCtMfXb6CY//ZJHwCgulQoYAWrtSO8RqQsfd29pB3kaVyEf09CtExpMqU/YAZdYh1KZZhWEGTYaNhyHdPC1XAtZHHLeH3RJDupLpijfjjhfYlCFw96+1Ogej+fKyygwfHn6IuMFDkHAIASa1+fTnsXLyFnd/fi9Vj+detSr2eflv7Gjz+VFgCgOlUoYEU6uUhbVsBq7OxKbV3d1BnR22lJZa4TCVcjV7EXCWmVZbr+imEEy7JxuOLRTV5zxF70C6Kx3n7St2W5KmB5lTGCxddmBobR6yb7ZA2MOyvr1wAAoGw/jhtPKadPU2SnjjTwnbfoRhWuePRqz6IfpA8AUJ0qFLCucTNOV9qamyOtKZ4SqNui3eeAVZbaKmDFqQdrc/EzeWDlcIVVKpbvUH6ehCy9fPl0/xCpOmnLmqi1V+dX/+ONg9eHRdKw877+aKy3AgAoxdmt5Ie5LCspiZY+8pj0r3/icbr6oXHS/+PNt6UFAKhu5Q5YzbUHQy5icVYLRrxQ/3ymAevzi0xn4lEuHmniaVL7tYdrczItfZ2C6YFWY3deLo3WQpaOq07qU01tDa+7qqN+wHBU/Rlqov2ZmBVo3Di4nrMLbcvLoaEJUXKP1zoWFO8gBgAAfV95md7MyaDmA/qrK0b7fllG6979nzrT/m1ZsJAO/rpKnQEAVK9yB6xr3YwBanMZ05VcHBzoehWwdmgPiFwFrSxcXZDt0l5jboFOJV9KEn7qb1V4CtzYpJIyurODwqmdyXRTW8EBivG6qn4eXjRfC1Wbw+vKmkUOUm+mJdGAuLN0qsA4upuKaa4AAKUUqu0urpkwXlpTaVHGH06xlDNnVQ8AoPqVO2D1dPeQtqyA1Vg9ODKuGHgx+sjE2pwsac0p1LGkKiFXKwTrsjQrg55XVfI8tMA+OzCcapm50mRNC1cbbPNoK49a9db+PHCE+iYzjTpGn6J31bTaJi7GP0+pBryPAQBMcdGKgtxcGcGqd3U3dZWobtcusv5Kx1UEa7dvp84AAKpXuQIWF2e/Xo1gbSlj9Imrnul+Pa9qoI6nF/b3MAasNVWwSWqwenhlCFjWiaeWzkxPln59LbR/GhgmfVvxiKqU6KkFSJ4i+2xKPDWJOk6Tk+NkVEvH67HYuhwUtwAAMJWdnFxcGbC7GsXiPbAmblxPjtpzwKnNW+jQ6jVSVXDY13PJzdtY1RgAoDqVK2B1d/OQPbCitYfAw+etneJ1VSPVRqiskclolin9NRtys2UvJHMLN1mDZe4CGlB9pqYmymgW4/fdjIBQ6Vs7nvLYQ/t62H/a+/+62NM0KyO1zGmA+kjv71Uw0gsAYO02ffyJtB1G3E2vJcfTiO+/kXB1ZO3v9M2wEbTgvtGUePwERbRuRUO/miOvBQCoTuUKWFerB8OtZYxejfcxltbep0LTXWVUgYtwcqZxqgQ3T4eqCnr5d4bKa9ZtfFIs7VTvtbu1YD7ZBvbI4mIeenDcl58rbVk4hIVqDwpczv1PBCwAgAtweNo+92vpe/gbZ9Bs+GAGfd67n5RrT4+N1ULW/VSQk0MGrGUFgBpQroClF6fYfl55dp7GdZ+XMTjplQMnag/DnweG0XXagyIXv+D1Jm/7h8jGwjx6tSQrXV5nbhzidDzSBtaLCz48nBRHSWqq5/N+QXSzml5qzfarYHWpP3T69MBfczJRQRAA4CIWjn6A3mjYhF6LbECvhNehnydPUXeMTvy9kZ7Tnke+GTJcXQEAqD6XDVhcVrpn8fqr0mtChqjRKt7P6PvMNHo0OY6yDEV0h3Z9SUhtOlu7ER2p1UDWXiVrD8uPaferSh3nkoClb14L1ovLmPP7SfdRQNhFp59aC31ctWQy64X0EeCLrWUEAACjpBMnKfXsWRmxKkuRqsgKAFDdLhuw7lQPfJtys2lPXumpTSuyM2iV9iDI5aUZh6zrYs/QJ+kptEt7rf4gyUUteNrXqfM2VzWXQEcn2WNIx3t1gfXj99ZrqYnS5/3T3rfy9Vj6iJSDlI25EG8yHOLkJD8gWFxFI70AAAAAULX4Se+S85DWhkbKAn0effq2guun/LWHYj8t/FRVsNK1cXGjP8Iipc+bs9Y6d0z6YBu4pDnvFcV4G4AXVDl3a8QVN3n63+ky/kwsD6lN3dw86O20JDkAAAAAwPpccgSrmYtr8YavKyoxZSmlqKjKwxWLNJkeeAajVzaHy5gfU++jh7SAwlNQrRWvVSwrXD3g7SfhiotbfFdFhWAAAAAAoOpdMmD1cjeuveIpfryGylLVdSpZm3OmGgIdVK8MQ5GELN07/iFUz8rXY5lq4uxKL/gFSf/F1IRSe2IBAAAAgHW5ZMBalpVB8zPTaGa6sUKgpcIIlu3jNYCm67E4ZNkC3h9uU3hdWUPIP8j4MiNV3QEAAAAAa3TJgMVh5ZHkOHm4tWSmoxllTb8C2/BherIUvmA8uvq4r/Xvj9XSxU0WQi7KSqdHkqquyiYAAAAAVI/LFrmwBuvD6lILF1fpP5gUiwpsNoy3DVin/ffmAirslvhztNnCfwBwOa20kPXfJTYfBgAAAADrcckRLGtRz3SKIEawbBqX4H82JV6dEU33D1Y964VwBQAAAGA7rD5gBTs6kZfJHlinsQbL5v2QlU7fqEp7PPrzmg2ELAAAAACwDVYfsOqarL/KMRgoBgHLLvAo1gk1Wjne25/6uHtJHwAAAACgJll9wDKdHogCF/aDw7TpVMFp/sHk6sBLCgEAAAAAao7VB6w6JntgYXqgfVmbk0Ufqy0EGjq70DQ/TBUEAAAAgJpl9QEr0qlkBOtsIUaw7M3LqQn0ryoSMdrbj/p5YKogAAAAANQcm1qDdaYAI1j26LmUBNUjes0PUwUBAAAAoOZYfcCKKDWChYBlj3gfrPfSkqTfQAvcU/2CpA8AAAAAUN2sPmDVcnJSPaIoBCy7NV0LWDvzcqQ/ztufrnPzkD4AAAAAQHWy6oDF+18FOCJggdFLqYmqR/QyCl4AAAAAQA2w6oAVYjJ6xbAHln3bkptNM9KTpd/W1Y0e8wmQPgAAAABAdbHqgBVmMnqVWlREuQaDOgN79WpqIh0pyJP+c35BVM+kCAoAAAAAQFWz8hGskgIX8UUYvQKj11ONBS/4zf28b6D0AQAAAACqg1UHrADHkk8/sahI9cDeLc/OoKVZGdIf7OlDPd08pQ8AAAAAUNWsOmD5mUwRTCkqVD0AordV2Xb2hC/WYgEAAABA9bDqgOVvMoKVghEsMMHrsGaqghdXu3nQHZ4+0gcAAAAAqEpWHbC8HUo+/TQELDjPO2nJUvyETfTxlxYAAAAAoCpZd8AyGcHKMCBgQWmZ2nviIzWK1drFjYZ7+UofAAAAAKCqWPkIloPqEaVjBAvKMDM9hWLV/mgPeWMUCwAAAACqllUHLA+TKYLZGMGCMhSQgT7JSJF+SxdXuhNrsQAAAACgCll5wCoZwcrGJsNwEZ+np1KCqjL5IEaxAAAAAKAK2cwIVhYCFlwEj2J9mm4cxWrv6kYDPLykDwAAAABgblYdsNxMRrByMUUQLmFWRmrxOr2xGMUCAAAAgCpi1QHLvVTAwggWXFyWFsC/UGuxrnXzoOvdPaUPAAAAAGBONjOClYOABZfxqRaw9LV647z9pAUAAAAAMCeMYIHdSCkqoplqX6w+7l7Uzc1d+gAAAAAA5mLVAcuVELCgYrhke6pai/Wwd4C0AAAAAADmYjNTBPMIAQsujwtdfKhGsbiaYDc3D+kDAAAAAJiD1QYsjlaumCIIlTBDC1inC/KlP8kHFQUBAAAAwHysNmCZhiuGgAUV8b4axert7iXrsQAAwLY0v3kAvVOYSyPnf0t1u3ZRVwEAqp7VBizT6YEMAQsq4pvMNNqRlyP9Sb5YiwUAYHO05wIHR0dqN2woPbplI103eZK6AQBQtZy0Y6qxa118tb80J/qUPBj/Lz2Z8hCyoALiCwvpDk8fquPkTOcKC+jf/Fx1BwAArF3CkaO0dfaXZCgqovrXXE1N+/ahjPh4OrP9H/UKAICqYbUjWO4mFQQZRrCgolbnZNLK7EzpT9HCeul3FAAAWLvUc+do+ZNP0y+PPyHngz/+iDreM1L6AABVxYqnCJb+1DF6BZXxTlqStHWdXehJ30DpAwBcTlCjhhRQr546A0u3/v0PadULL0l/+Ly5sj4LAKCqWG3A8jBZg5WDcAWVxNMCZ2WkSp8DVj0taAEAXM7kndvp0a0b1RlYg7WvT6cNH8yQ/r2L5lOttm2kDwBgbjYRsLINxo1jASqDR7HSiopkiiBGsQDgcvjB3N3Xl3JSjD+cgern6uUl66q4gEVF/Dx5Cu2av4BcPD1p2FdfkrO7u7oDAGA+VhuwvBxLPvUsjGDBFUgqKiyeKjjM04d6unlKHwCgLLXbt5P23K5d0kL16Xz/ffTk/n/pjYwUmrhxvZRgH7d6JYW1aK5ecXkLR4+l6L3/Uq12bbWQNUddBQAwH6sNWN4ma7CyMIIFV+hT7R9rvYogRrEA4FJqt28v7bldu6WF6lO7XTsKa96MigoL5Tzl9Gm6qk9vmbLpV6eOXLucgpwcLWQ9IL9Gu6FDqOeUyeoOAIB5WG/AMhnByizCCBZcubfUKFY3N3ca7e0nfQCA8wVf1UTa2P0HpIXq89OkybR11hxydHKSMuwfXXOdTPlzdnOjm55/Vr3q8s7u2ElLHp4o/VvefZsaXNtD+gAA5mC1AcvXZAQrAyNYYAarsjPpp+wM6T/jG0j+JiEeAEAX0sQYsOKPHJEWqldBXp60W2bNljLsv78+Xc6vfmhcuUex2JYvZtP2uV9L/45PZpKTC4ocAYB5WO0TpJ/Jw29qEQIWmMdbqcZRrEBHJ3rON0j6AAA6LorAJdoZj6BA9dM3Cm58w/XSxuzbTzlpadLPTU+XtryWTHiE4g8dpvBWLWmwFrIAAMzBagOWj0nASisyzsUGuFJHCvKKC17wNMHr3DykDwDA6nXtIm3U7j1kwA/3asS/i5dQXmYmNevfj+p160q+ERFS1ZHXVuWkVqyyY352Ni2Z+Kj0uz4wmrqMuV/6AABXwmoDVoCjk+oRpWCKIJgRr8U6kG+cgvKiX7C0AAAssktnaVHgoubkZmTQpk8/l/7d386j3i+9IP39y1dIW1FH1v5Oa155Tfo8VTC8ZQvpAwBUFm/9Y5UVIr4PjqA+7l7Sf1N7IH5XjToAmAO/t/g9xt7W3lt8AACMXvYTtRh4My19ZBJtnPmJugo6HgHyDQ8nr+BgcvX2VldJpvAtm/KkOrtyDg4ONGblMmrWr6+6QvRu63YU898+dVZxD/3xm0w7PL5+A33Ss5e6CgBQcVYbsH4NrUOdXY0bBD6TEk+zM7DhI5jXuwEhNMrLWE2wf9xZ2p6XI30AsE+8OS3vv8QP9281aylrd6BE0759aOyqi48iXWkAOh8XpXjg1+XU5MZetO6d92j5U8+oO5XD67Cm7NlJDo6O9Nur02j1y6+oOwAAFWO1AWtreD1q5Gys+DMuKZaWZFVsYSvA5bhpD1Ebw+pSfe19tlMLV320kAUA9qvNnXfQvT8skE1q32vbQV0F3ZA5s6jL6FH0+xtvUmZCQnHhCZaXkUm7Fy5SZ+ZVu0N7OrfTPJs+93hkAt0+4wPpf3zt9XTi743SBwCoCKtdg2VaQjsZRS6gCuQaDPR8SoL0O7i60zR/rMcCsGetB90m7YEVK6WF0njkhyWfOkXr3/+Qts2ZW3xUVbhi5gpX7O+PPi5ey3Xr++9JCwBQUVYbsLiMti5R7egOYG6rczLpw/Rk6T/k7U+3eZSsKQAA++Hk6kqtBw+S/r9LlkpbHo2u70lDZn9BnkG2v+1DUUGBtFzRz5r9MnmKtJGdOsqIFgBARVllwOIKgjy3UZeIESyoQq+lJtKm3Gzp/y8gVKYMAkD1cHQq+WHapTi7udFDv6+hvq9OVVfMq9Vtt8oeWLzn0pl/dqirl9dx5Agp/KCPftmy2P37pa1/zdXSVlb/11+jB39bVWOhNOHoMfpj+lvS7/Pyi1YfGAGg+lllwDKdHsjiEbCgik1JjqdMQ5FscP2+FrIAoOq1uv02ersgh2587vLFC/q+8jI17nUD1b+6m7piXi1uHSjtgQqWAs9MTJTWMzBQWlumB896Vxiw6ne/hprcdCM9sOIX8g4JUVer1+9awMpOTpaQ1+uZp9RVMAf+YUhYi+bqDMA2We0Ili61qIjyDFZZpwOsCG9A/FhynPSvdfOgV7A/FkCVK1LTv3lEQ5+eV5aINq3phqeNJcBXT31VWnNreest0u6v4PqrLD1g2cEUwTPbtss0QZ+wMNkAuLK+HXq3hLW6XbvQGC1k1YTc9HT68x3jGqzrJk+yi4BcXbjy45P79lJos6bqCoDtscqAFWgygoXpgVBdlmZlFK/HmuDjT3d6+kgfAKrG/mXLizeAHTp39kV/6t3z8cek3fTJZ3Ry4ybpmxOHBZ4mlpWURCc2/K2ulk96rPEHM4H160lrywpyc+ngqtXSb37zAGkrIz02lubcfKts5hzZudMVTzmsLC7UwQGZp4ZeO+kRdRWulJOzs7TeoZWfDdL7pReKN5gGsERWGrBMClwgYEE14vVYa3OypP9BQCg1c3GVPgBUjTVTX6W9Py6WgHPPogVlPpTpD/ObPv1MWnPTH/BPb9subUWc27lT2tod7KOs+yEVsHgz5iuRERdH0Xv3Sr9W2zbSVreCnBztPfW59LnYBQctuHL8gwrmERAgbUWENL1K1ufxlODeLz6vrhLV6diBbv/wfbr3x4WyFvOm55+VEVCAmmKVASvIJGAlIWBBNeOpgjGFBeTu4CAhCwCq1vz7RsuUsfCWLbSQNb+4HDhrfMP15BUcTPGHj5h1E1tT+poingJXUdH//ke5GRkU3LgR+UdGqqu2a98y4xq1Wu3aytTNK8H7jbGINjUTsNiWL2ZLy2EAFQXNIyvJOBPEO7Ri6+t4I+spu3fI+rzE4ydo7m2DKax5M3pg5TJ67J+t1OPRidTmjsGyFrPftFfp0S0baeiXs0v9fQFQXaxzBMukqlQCSrRDNeNwpa/H6uTqTu8G1MwibAB7kZ+VRd8NH0FpUVHUqOd1NGb5z8XVBfW1WYdWr5G2KoS1aCFtZQOcPm2Rw6CtSzl9ungaJRcpuRL69EqfsJr7QVbKmTP0z9fzpN9j4sPSwpU5q0Z1G3S/Rtry4j/rPIr4z7xv6P32nSioUUN64r891Kx/P1kz9/eMmfTNkOH09R1DZLpwYX4+db7/Pnp06yYKuaqJ+lUAqoeVThEs+bQTMIIFNYCnCU5PM05zGOXlJwcAVB0unf3NsBEStviBiosfODo7U/vhQ+X+v4uXSGtuHOT4p+Qs4ehRaStKD1iN7CBgsf9+NhamaD3odmkrSy8Q4h0WJm1N2TJrjrT+detS17FjpA+Vd+LvjdI26NFD2vJqPqCftBs+mKF9bHe6fcYHMjq17cuvaFrdhvTTpMm054cfZZ+6JRMeoRldr6Go3XtkP7MB01+XjwWoLlYZsPxNpgjGYwQLash7WsBanp0hfR7F6uKK+fkAVYlHRubefgcZDAaZLjR5x1apzsfTA4/9tV69yrxqt2+nesaQVxnH1YhOs/59pbV1//30s7RXOk2QR49YTVeb44B8fP0G6feYWH3TBLm4yuO7d8jaIp72Zis49KRFR8sIVHnfH+5+fuRXp46MVPEx7Osv5frvb7xJi8aMpeyUFDk3xUVSvhpk/PuCR7/aDrlL3QGoelY6glUSsOIwggU1iPfHOlNYIH3ehNjNwXQLbAAwt8O/raWvtJDF9LU5e6to9IrVVeXGY/cfkAe7yji27i+Z3sjly5vc2EtdrZxWg26nSds2yyL/wAb11VXLknjsOJ3ctFn6V1Lsgjd15sqEXCI9uEljdbVmbFWjWBwIqutBPeSqq6TAB68t4sINL0WdpkEzZ8hUUw7+4a1aSlu3S2f1Edbj4MpV0pa32qRf7VrSpp6L0sLVXFl3ycVvfn3+Rbl+MUknT9Hvr0+XfseRd0sLUB2sMmAFmEwRjFMPtwA1gatYTlHrsbiiIIcsAKha+35ZRgtHP6DOiBpf35OcXKumoqe+n9PZHcZNdCtr3y/LpdX306osLhfOpcu5RPVzx4/Q9U88ru5YlgNqv7DmA/pLy0GrMqXq9UIXdTp2lLam7Pj2O1lfxqqr2AWvNZrRrTv9Mf0tCfi+ERHUfcJ4euiP32jyzu30xL+7peU1Ru2GGafKWgt9zWTD666V9nL0NZe8Nx5X9eT3BRe/KQ8OYqzFLQPtYrsEsAxWP0UQI1hQ0/7IyaI30oxrBYZ6+tA4b3/pA0DV4bLtunpXd5PCF04uLuqK+eiFKfR1I+V10wvP0ZA5s4oPfZF9u+FDS10v6+D1JWVpcG0PKfLBa5N2fve9XBv4zlvUbVxJ2LQUB1b+Km397tfIaNvoZT/RI1s2ytdQEWd3GAsi1Nf+G9c0fS0W//epril7p7duo5XPvUDvtGxDH3TqKmGLtws4t3OXVKjklqcwxvxrDKLW4uTmLdKWd4+zvCzj9ijuPt4yOrpg1GhZj1keUXv2Fheoqdu18htgA1QEz2cyGLvW42ztRlIimzWJOkHJCFlgAb4JiqD+Hl7SvynuDO3Oy5U+AJjfw3/9IT/95gXuXCnMQfs3gX8qzhvU8k+5zYHXED2+6x/pv9GwCSWdOCn98ninMLfS5aF5D6jPe/crHr3RtRs6hEYu+I72LPqBvhl6N13/5BQa+Pabcu/b4SNp94KF0rcUL507Rb61jFO7dFzZbc7A2+jwmt/UlUvrMnqUhE4OFVy0oCbxFM+XY85Kn0e05t8zSvpQOc8ePSTrsDg46kH6Yvh9xO8n3kPrpaCKFz0Z9tUc6nTfvbJm63LTCgHMwepGsLwdHIvDVZ7BgHAFFmNKShzFqimrb/ujdDtAVYlo3ap4atEfb75VHKq48AXvicNrdswhuFEjaZNPnapQuGKzB9wi0xhNj+xk4/4/a1557YJ7fGz7cq7c582U9dLwpvSf4rv5+Ei77p33aO20N6Q/cv63xdPxLIVp4ZFTW7bS9rlfyyjjwLeMa2LK48x2Y8DldUZcNbImpcfG0vavjCXbO44cQT7h4dKHyjnxt7H4S3lGNXkNI49C8Z/t7pUol68HuCvdmw2gvKwuYAWb7oGFcAUWJE57wHsyJV76HVzdaZp/sPQBwLy6PmAslc0jVglHjtLBX1dJoMnPzqar+vSm8et+1wJKc3nNlfCLrCNtZaoH8ufGgcL04FEYxkUgzr/Ho11dRt8v91e//EpxGNO1v3s4tblzsPS5TH2/116R/qoXX5b9f9h9ixdddHphTTiy9nfVIykQwiGSp7XxyGCfqS+pO5fGD9X6iCQH65q2bY6xeh1D0YQrw8VfWKNyrsP6ffpb0t70/LOlpgiXh/7DCYOZRrcBLsfqAlaQyfqrWPxBAQuzMjuTPkw3Phg95O1Pt3l4Sx8AzIPLsutrjrbOLnnY5SlnM3v0lMpz/CDOhQD0AhWV5V+n8gGrLHEHD0lbVkU8PTSufmmqrFkau2oF3fvjQpkid/Nb02nEd/Oo0733yGsYl63W8f4/PLLCm7DqUwZrwuCPP6IuY4whkR1e+4fqlewFtvKZ56Qt77oxLrHNBR5YROuaH33gtXj6aAiHXqg8PWCVdz3bru/n08FVq2XkcMCbxpHb8nJWRXD0oAVQ1awuYJlWEIxGBUGwQK+lJtLm3GzpvxUQQhFONTutBcCWcNU8DhI8sqFXB9Pxgv+Z3a+j/cuWy3qZsatXFhepqAy9clleZqa0VyrpxAlpuRrc+fQRt17PPi0tL+Bvc8dgWX90w1NPyLVfHn9C1mexU6pIgG7h/WPor/fepw0ffqSuVC/ezPWahx+iIbO/oLtmfS7T+bjqHv83YUf++FNaLn4Re+CgfA9a3X6bXLuc6L17pY20kHLk/KDP9FLpUDlcQp1HNPmHBeWtJrjy2eelvWb8g7LZOJexLw8uhMOyky/cLwugKvC/HlONXevQ2dWdblajAuu1h9i1OfhpBFieXfm5dI+XL/k4OlJDZxdaojYkBoDK47VH9y/9UYIPP2jxRqLn432Tds1fKFX7Ijt1osjOnWnzZ5/zUIh6RfnxQ1/Da3vIxqh62fErwRXheIPVjTM/uaACGpeQ9o+MlDVKPLXu4+t6SUjh0Zuovf/S8ieflgf78Nat5Cf4vFD//H25eBQvZp+xWlp1S4uKpszERFkHVqdDe9mvK0Z7eF6nhT7+vPW1VMwnNFSqIXLgPPJ7ySjXxfjXrUvN+vUlJ+37seWLWepqzUmPiaFrJz0q/fgjR+j0lq3Sh4oLbtxYKkS2GnQb7Zj3LeVmXPrfyvSYWNmAmqfCcri6+qEHJTy5eXnJ3lhuPt7SeoeEkHdYqOwldo32mu4TjOu2Fj0wjjJijT+kAKhq/K+O1RwTfQIMCXUay/G4b0CZr8GBwxKOkV6+xe/VSdr7tqzX4MCBo/xHj0cmGN415BuePXqozPvnHxM3rpfXD5j+epn3L3fc9MJz8vFD584p8765j5a33Wrwq1OnzHvWckR26miYtH2LfN/46Dll8gWv6TP1JbnXb9qrF9wr69Aepot/PY8Ay/i79NGtm+TzGbPilzLv4yj/cfe3XxteOH3coAWjMu+XdXiHhhqGfTWn+H1RnqO6/hzjwMGH1U0RDMUaLLAS32am0TztYC/6BdG1bh7SB4DK6TzqPmk3f/6FtJfzy+QpxXsGVQYXo2DmKJhRHvt+/oVSzxrLgFurM//soA87d5NROnbLu2/TvT8skBEFnT71srwFB3jdkz5Ns9H1PWV62J2ffyrnNeXA8hXS8kgcXJnvR95H0+o2pMyEBHXl8niq7IJRY+i1yAa0ZMIjtHfxEqlUyaNbXHGQRxl5tJinIPIo6ez+A2UaLUB1sbp9sD4PDKM7PI0laoclRGGKIFg0/gnGH2GR1MrFjY4X5FOv2DOUYSgy3gSAcms/fBiN+P4bmQI4Naw25aSmqjtVh/fo4b16eO+m530DqSAnR92B8uBS5oM/+UimdvKDLz8AF2nfS704xBd9+tPh39ZK/3J4I+nmNw+gjR9/Sq1uv5X8atemj6+9vsIbQJsLT1GbsGGd9DlQcrAEANBZXcBaElKbrlMjAT21h9V9+djMFSxbJ1d3WhVqrEa2OCudHkyKlT4AlN8zhw9I9b01U1+VfaSqy+Qd26h2h/b0w9gHS1UthPIJbtxIC1kz6areN6krRrx/F5eYL6+uD4yW4hk8KsEFMooKCugZDx9pa8obGSnk6uVFPz36GP390cfqqnnx/l8VpW8HAAA1x+oC1vqwutTCxVhus0nUCWw0DFZhrLcfTVebD7+UmkCfpKOSEUBFPPHfHu1fKwO927qdulI9uk8YT4NmzqDj6zfQJz17qatQUS1vu5XcfXykCAFP2Yo/fETdKR8OMtNSEoo3Gz765zr6rFdv6dcUfVRt94KF9O3wkeqq+XS+/z4a+uVsdVZ+vAH18qeeUWcAUBOsLmAdiGhAIU5OMs2q/jnj/HgAa/BxYBgNVdNbB8Wfow2qlDsAWC4XT096NT5a2qUTH5UpalAzhs+bSx3vMQaZ316dJhsy16Trn5wi+45xOfpp9Rqpq+ZTp2MHGvTRh7IJdUX89b8PaM+iH9QZANQEqwpY/MnG1zFu0HgoP4+6x56WPoA1cHdwoN9DI6mpiyudKMinG+POUFoR1mMBWLquY8fQXV98Jn1eKM+b+kL14+IYHe8ZQfWuvloCVuq5c+pOzYjs3Ikmbdss/emNrqLE48Z9zgAArGofrFDtL9cJPgHS35OfSz9mld4DBMCS8UqB/7T37QgvXwpwdKJ6zi70C/bHArB4XIWQ96jitVi8Oa6rt7dU+6tI1TO4cgaDQfYk2798xQV7gNUErlbX45EJMroZtXu3fG4AAMyqAlZ9Z1e639tP+n/nZtPqHPPsrg9QXc4VFsj2An09vKiZiyvlaA8MW/NQmQzA0u37ZZk81Dft24fqX3O1bFzKmwN7h4ZSzH/7KD8bU37tUWSXzlLGPzs5RcrsAwAwqwpY7Vzd6U61huVXLVxtwhoWsEI8+hrk6EQdtPdzT3dP2qYFrJMF+eouAFiqU5u3SLELQ5GBAuvXo6CGDalxrxukAMPBX1epV4E94f29mg/oT+6+vvT3jJnqKgDYO6vaaLiWk7F6EIsqrLnSrABX6umUeNqofkDwP/8QCjbZQBsALBdXr1s4+gF6MTCUvrzldtr06ef0z7xv1F2wN/o+XLxnmldwsPQBAKwsYJU8hCJggbV7NDmOEosKqa6zC32kPawBgHXhtUBLHp5IZ7b/o66AvYne+y8VFRq3i4lo3UpaAACrCljhJiNYZzClCixcaxc3+jW0TvG6wfOd0t7Dk7SQxXq7e9HLfkHSBwAA68CFNzhksYg2raUFALCqgBVhGrAwggUWbrCnN3V2dad3/EPoLrV28HyrsjPp9dRE6T/iE0DDLvI6AACwTOkxMdLyOiwAAGaVI1hciS3PYFX7I4Md6u7moXpEnwaGUUsXV3VW2vvpycVbDszQXtfe1U36AABg+XLS0qTlYicAAMwqi1ycxvRAsHC8zxVXCeSZ+XMzUuXai34XXwA9MSmOduflyh9IDmNcZRAAACyfs5vxh2K5GdjXEACMrCZgeTs4kr+j8dNFSWuwdLwpNuP/5zVYsYUFdJO7J93jVfYUkgIy0MTkWEoqKqTGzq4SsgAAwPJ5BgZKmxYdLS0AgNUErFrOJeuvTmH9FVi4Q/l51DXmFM1IT5bzMDX6OvQSa6wOah/zYFKs9HtpYeyjAFQWBACwBDe98Bzd8PST6qy08JYtpI3df0BaAAAH7bCKxUzXaw+cPwbXkv5D2kOovmYFoLr0dPOkZi6ucphamJVGW3Jz1NmFpvuH0FiTSoI3xJ6hf/Nz1dmFRnj50ocqXM3OSKVnUuKlDwAA1c/R2ZnezjfuW8gVA1e//Ar999PPcs77Xz179BAV5ufTM25eUlUQAIBnME01di0bFwzo72FcQDozPQX7YEG14kqA0wNC6EYt6Ld1dSt15JGB1uRkqVde6HftHq/FulYVveC9r/5WmwyXhcMXv4ZLt/M6rkBHJ1p7iV8fAACqjqGoiM7u2EmhzZtRrXZtqd2wIRTWsgXF/rePOoy4mxr1vI5ObtxE2+d+rT4CAOyd1YxgPekbSE9rB2sadUIeQAGqy88htSXkc8GKgwV5lGvyU8rl2RmUov0DfL5WLm50THtttnotf/zDPv70UXryJUe8dPzaV1VhjIVZ6TRBTR8EAICa0XPKZOr36lRy8fRUV4y+HT6Sdi9YqM4AwN5ZRcDin+JP0x40u7i5U472sPp8SoK6Y/wCHLT/45YXlDlpPW4dtQvc5yE6R36BYtD+V6R9xfw4zIUFuM8tx7WzBQX0W06mvA7A1FdB4TTQw5tGJ8bQL1qgupzmLq60IawubcjNpkHx59TViuOiGO+r6YI8ivWwFrK4EAYAANQM34gI6quFrK4PjKaM+Hha9857cgAA6Dh5WHzAWhcWKaMBVY2/EY2jjlNqGaMRYN/e9g+h0d5+sh6K10VdDm8psDeiPsUVFlKL6BPqauUM8vSmWYHh0j9SkEfjtZDFJd0BAKDmBDduRAlHj6kzAIASVhGwhnj60FvaA66PoyOdKSyg388bZXLUvgz+QviQUSwH48iVjGZpF01LJfIXy/GJZ23xyFWB1uHxgH4eXhTs6ETNtYfheO2hGMCUPl1vXmYaPZ4cp65e2unaDcnTwZEaaqE9rZKhnasOPuDtr/2+qfSsb5CUf+dNtnkk66dyjKQBAAAAQPWyioDFomo3IlctOH2ekVJqiqC5xNZpLKEs7OxRCVwApjq7utOvoXXoQH4eXRt7Wl29tL/CIqmlixvdFHemUiNOvG/WAlU5k8u3787Lkf2xeMosey01kT5UZeABAAAAwDJYxT5YPLLE4YqdKjB/9cA22kMwh6vowgKEKyjTdi3ccGELXlvFoak8dqlQdbWrsXpgRbTWfo+5QRHS/yQ9hRZnpdOxgnzqH3e2eIuCF/2C6N2AEOkDAAAAgGWwioAVoTZpZSe0h0xz4+mBbFU2ClzAxXG1QDYrMIwe8van2z28qaurO0WavD9NbVGl2Lu6GUecyot/lMCFLTwcHGh+Zhq9lFoyYss/AOB94N5OS5LzUV5+Msrl52gVf5QBAAAAbJ7VBaxThVUXsFajgiBcAk/T26iFpqtcXGmafzDNDgqnFaF1aFdEfdqnHRN9AmQkVLc1z1iKvUsFR7D+p4Wrdq5uMq3w0Yus9+KAxZ8PBy6eSrg8pE65R9YAAAAAoOpYRcAKdyp5bD1l5hEsnh7IB++rhc1c4XK4TPurqYmyFpDLtfPUwXOFBRTm5ExT/YLoKzWtj/Foa4x2jwtTNHJ2UVcvjaf9cWl2LsAyWQtXl1ogydMGB8SdpePa78NTF5eH1JawBQAAAAA1x6pGsKK0h1XTDV7NYbCnt7Q/ZaEiG1weB/EZ6clSaIXDFq+Jaht9ku5OiJZ7/T28JCDp/lGjWB1VYYpL4Y20J/kESP/BxFj6N//yhTF2aL8+fw5/5GRJlU2eLjjC5PcHAAAAgOplFQGrtgpYp6ugwMXtnj7SLkXJa7gCa3Iy6ZXUROmP8faTlulrBsMvsk5Ld62bBz2pBSzGa6x+rsD7kYPdkIQo+irTuD/XhwGh9JgKagAAAABQvawjYDkbH07Pmnn9FU+nqqM9+HJ1Nr0gAUBlJaj902JM9lGL18IP40qYl8Jrutj/0pKLqwRW1BPJ8cUh7wW/oOJfEwAAAACqj1WNYPEmw+Z0q4dxeiCvpQG4Eq1c3GTkiB00mdqnb1p9t5evrMUqy2SfAClQwUUt3kgzBqTK+ig9mSYkxUqfKx3OCgyXqoQAAAAAUD2sag3WaTMWuOCHzlvV+iuUZ4cr8ZRvIK0Li6QQLUBxKfepahSJ/ZCVTku0I9dQVGbBCh7ZelxNDXxHlV6/Ugu13++uhChKKSqiQdp7fFlIbSnCAQAAAABVz+IDlr+jI3k5GD9Nc+6BdYuHN3lrvy6HNi4UAFBRXMzin/B6ErDYlxmpNFaNHpkap11rGX2yeDTLFE/l4/2u/srNMus2AX/mZNFt8WfpcH4edXPzoKXBtaTSIAAAAABULYsPWKZ7YJ00Y8Dqo/a+WoPS7FBBN2vvHR6x4s2A6zu7SEC/MyGKnkqJp/wKVLm8w9OHRqqKf++mJUtrTvu0cHVr/DnapPbuWhpSm7qUo5ohAAAAAFSexQcsff1VjvbgetaMa7B6uRn3C1qXi4AF5XO1mwd9HxxBXwdFyJor3pPtseQ46ht3ltZVIqi/oYpQvJmWRJurqMhKQlEh3aaFLF5nyNMRfwipRT3Vex8AAAAAzM/iA1YdJ+MGrccK8qQ1B96TSC84sD4H1QPh0tq7utHcoHBZy9TH3YvSiopks+GOMafo28w09aqK4bAWpAUe3iT4XTOtvboYHlPjPbt4bRZPt10YEoENiQEAAACqiMUHrEhVop1LqZtLS7UWZWteDmUZiqQPcDHv+ofKmr08g0HKqLeNOSmbDV+J7lrAYrxBcHXh6oJfZ6aSMznIhsR9tbAIAAAAAOZl8QGL17iwQ/nmG8Hi6V1sJ4pbQDl8kpEi5c/bRJ+UMurpRVceyvW1ULw+qjpNSY6nORnGDYm/C46QKoMAAAAAYD4WH7AaVkHAqqXWdXGFNYDLWZyVLhv48nomc+nqZgxY22sg5D+dEk+fpKdIn/fJ4j26AAAAAMA8LH8ES63BOmjGNVj6+isuUgBQ3dq5uslaKF5/FW3mzbPL66XUBHpPrf2aERAqmxIDAAAAwJWz6IAV6eRMPo6OUkHwoBlHmwIcjQEruox9iQCqWic1PbAmRq9MTdcCFhfrYNP8g4v38wIAAACAyrPogMV797C9+bnSmgtv7MoyUeACakBnFbC25db8GkAu1vFEcrz0OWBN9w+RPgAAAABUjkUHLL0Yxb955g1YLipg5VZgU1gAc2mm3tf/5FnGFgFfZabS2KQY6Y/19qP/BYRKHwAAAAAqzqID1nXuxlLW5q60lqWClacKWgDVyVu97zIsKOAvzcqgOxOiKF/7nO718qW3MZIFAAAAUCn8pGeRwziu2kPo2dqNJAFeFXWCkq6wghv/Ok7ar8lf8PqwutTY2YX6x52lEwX55KhddJI7JXiVlqP2ev4442H8WGb6DSv9UcZ7hdr/8+TDIu1hVVp1FGrnfL9A+/8CrWNsDdrrwZ4cqtVANhnuFnOajpqxeIs53OjuKXtk8fv6i4wUei4lwXgDAAAAAMqFn6MsMmAN9vShLwLDKFsLIByCWHHY0T5r3iyV+84qBPEXwiHISd07v7VkErpU0OLQxaMIHMDyVD9f2pJ73OcQpwc16av7+q9jGvC0W8VHkfb/hVqH+zr+7hQf2v+ZhklTJd//ku+5/jpj33jG/31M/5vor9GZnuufh2lrjKGlP0ed8b46tP/j13Jf/zo5xOpfv97n7w9/zcXfW+0at/z95e8bf3/5+8ZTRnkz4Vz1Ov2c34N8jYutZBuK5Jz7/JrK+FR7X9+lvb+35eXQ+pwselNV86tO/AMM/iFDmJMzhWlhr52rO/XSwtXG3Gz6NTuTvg+OkNdxOXeuOAgAAAAA5cPPupV7SqxivAlqX3cvdQZgeThg6WErRwteegjjKajZRcYglqVd53MuqJJVZDxv7OJKw7SAxXbn5dJrqYmUoV3n12RoH2fsVz7A6fwcHSlYC08RWojio5EWqFq6uFEz7fdvoPaXO98e7fO5Me4MDfDwonlBxpDFmyzzPmAAAAAAcHkWG7DO1G4k1f6GJ0TRWbVXEH+yPB7C0/dKRqhKj6bwiBZvI8xT/pzVa/QpgPw6fr1+n38Naflj+YMV7spoGLfqNcZrxntMPg+5Z3yt/nvxNT7Xfy9+jOXPycXkNVxkgz8H4+fqQK7adb7Powp8uKnXc59fy78H2B8efcvVwlZJiDOOqukjcTxKp7115OD3kbv2XuHDWwtW/lqwKs/7hsPcqYICmar4Z06WjF4lqum4t3p405dB4dJ/XwtZryNkAQDYjdtnfEBntv9DO775Vl0BgPLiZzOLDFgfB4bJ9KzJyXHqiv0yhjBj8NIPV3WNw5keyDiw8UM1hzL9nAOeMdDpgVAPf8ZfV/8YY9/Y6vckUGp9xo0eHKWv3VC3Sim+L632P+3E9HV6X2/1N59pq/1nvyh9+qAp09+n5Pc3fh18rgdgPUzz5y4BV66bfI+0gzcGMLbq+6wdtoI3Nd6Zl0u78nJoX36eduRS1GU2Oh7k6U2zAo0hq1fsGbNvmQAAAJanbpfO9OjWTXR66zaa0a27ugoA5cVPj5d4nAUAGUnU/qgYRxS1QKv1OZDp1/XQy6NHel+/LiFYfax+jw8enfVwcCz+GD3Qya+rXl98Tzv4D6oeWnkdHf+h1deJ6dMSU4sKKdVQRClaG19YSAlaG6u1Jwvy6VRhPqUV8ZhXxd3h6UOtXVxpKkawAADsAgIWwJVBwAIAAACAYghYAFeGfygOAAAAAAAAZoCABQAAAAAAYCYIWAAAAABwRSJatyInVy4VBQAIWAAAAABQzMHR+HhouFRZXxMcrqbs3UVjlv9MvZ55ivpMfYl6PDqRIjt3Uq8AsC8IWAAAAABQzNXLS9qi/HxpL+eqPr2Nbe+baMD016nPyy/S7R++T5O2baZBM2eQd0iI3AewFwhYAAAAAFDMxdNT2oK8PGkvpdH1Pann449JPzslhf75eh6tmfoq/T1jplzrPmE8PaoFraCGDeQcwB4gYAEAAABAMc+AAGkLcnKkvZiOI0fQ+D/Xkm+tWnL+YedutGDUGFrzymv006TJ9L92HenAyl8psH49uvfHReShfl0AW4eABQAAAADFgq9qIm3i8RPSloXXWg3/5it1RhS9919KOHpMnRlF7dlL8+4cSqc2b6Ha7dtR/9dfU3cAbBsCFgAAAAAUCykOWMelPV/tDu1lrRXb9f18aQ+tXiPt+fKzs+nHB8dL/5rxD8poFoCtQ8ACAAAAgGK12raVNukiI1jndu6iv957n74feR+1v3u4XPvv51+kLUv0v//RrvkLpN+0bx9pAWwZAhYAAAAAiODGjYpHsI5v+Fvasix74imq26Wz9P9b+hOd3LhJ+hcT898+aUObNZMWwJYhYAEAAACAaNzrBmlPb9tO2cnJ0r+YFrcMlPav/30g7aUknTgprW9tY0EMAFuGgAUAAAAAovEN10t7/K/10l6Mb0QEBTaoT3mZmXTi743q6sV5BhorCGYmJEoLYMsQsAAAAABA6CNYR/9cJ+3FBDVqKC1vStz31anSvxTPoCBpsxIRsMD2IWABAAAAAEV26kjeoaHSv1zA4lGrlc+9IP3eLz5Pj/2ztXj0qyzthg6Rlku2A9g6BCwAAAAAoLrdukp7fP2Gy24yzP6Y/hZ9ecvtFH/oMNXp2IEe+uM3GrXkB2rU8zr1CqPOo+6lsBbNKfnUKdl4GMDWIWABAIBd6ThyBN3y3jvqDAB0PILFzu7YKW157F++gt5u0bq40EWrQbfT+HW/01u5mTRx43p69thhGjp3jtz7Z9630gLYOgftMBi7AAAAtu+J//ZQeMsW9H6HznRu1251FRwctEcC7eC2qLBQXQV7ov/Z4P2tdn73vbpafj7h4dTjkQnU6vbbZMTK1LIpT5ar2iCALUDAAgAAu+Hm40OvpyVRUUEBPe3qSQaD/fwT2PK2W2X6loPj5SevcMAqzM2lAu04tWWrrMc5svZ3BFIb5ubtTa+nG8uyv9OiNcUeOCj9yvLw96dabdtQalQUpZw5W64phwC2AlMEAQDAbvA6EcZToOwpXJnir7usw5SjkxO5eHqSR0AANevfjwa+/SY9smmDugu2qFb7dtLmZ2dfcbhi2SkpdOyv9ZRw5CjCFdgdBCyotDs9faiNi5s6AwCwfA26XyPt2Z27pLUn+37+hZ50cqMnHV3LPJ5wcJH7Tzm70/M+ATQ1tBZ91qs35WdlycfvXvSDtGCb/OvUkTb+8BFpAaDyELCgUq5z86DPAsPofwHGcq4AANbgqj69pT3821ppoTRDUZFMD8zNyKDwVi1pzPKfZSTrn6/n0YL7RqtXgS3yCjbuU5V69qy0AFB5CFhQKfd6+0m7JidTWgAAS+cZGEgNr7tW+odWr5EWysabzY5Z8UtJuBo1Rt0BW+UVHCxt6rkoaQGg8hCwoMIaOLvQ7R7e0p+XmSYtAICla37zAGkPr/mteNoblO3+nxaTi4cHbf8K4cpecOEXJtUkAeCKIGBBhY3yMo5efa+Fq5hC41/IAACWrsUtN0u7f8VKaeHi/vvpZ9o2Zy4tvB/hyl5wQYqoPXvpxMZN6goAVBbKtEOFeDg40MFaDcjLwZEGxJ2lbXmoDAQAlqX/669Rw2t7UNyhwxR/6BDF7j8ga664BLWzmxu92aQZJRw9pl4NAABgXghYUMpdnj70oLc/LcvOoJ+041RBvrpj9LCPP73qF0xbcrNpYPw5dRUAwHKM/3MtNbq+pzozOr5+g6y/itq9h/7XvpO6CgAAYH4IWFDKK1p4mqCFKN38zDR6Nz25OGjtCK9H9ZxdaEJSLC3MSpdrAACWxMnVlRr06E6hTa+ikKZN6eoHx5Kzu7vc2zV/AX139z3SBwAAqAoIWHCBvu5eNMjTW/a5YvwGeSctiaIKC+iDgFA6rYWtDjGn5B4AgKULqFePnty3h1y9vKgwL4/m3HK7FLoAAACoCihyARdYnZNJDyXFUictRC3KSpcU/pRvIE3zN5ZwnYvKgQBgRQLr15NwVZCbK6NbY39dTi1uGajuAgAAmBcCFlzUyYJ8elgLWnfER1FcYSF5OxjfLjtQ2AIArEibO++Qdse8b2nTp5+Tg6Mjjf5lKbW96065DgAAYE4IWHBZf+Vm0fGCPHVGNCMglGo5OaszAADLxXv6tL5jkPT3Ll5CSx6eSBs+mCHn9yyaT51H3St9AAAAc0HAgsvq7e5F3dw8pM+jV/WdXWhWULicAwBYsp5PPE6+EREUe+AgHVq9Rq79PHkK/fHm29IfOncO9ZwyWfoAAADm4KQdU41dgLLxiFUdLVR9lZlKT6ck0M0eXtTSxY2yDAbsgwUAFsvJxYXu/WEBuXl706/Pv0Dndu5Sd4iO/P4H5Wdn01W9b6KmfXpTXlYWndy0Wd0FAACoPIxgwSVxNUF99Oqj9BSKLiygt9KS5PwZ30AKx1RBALBQ/aa9Sj5hYRR/+AhtnTVHXS3x59vv0qIHxkl/4NtvUruhQ6QPAABwJTCCBZc0Nyicghyd6NOMFFqalSHX9uXnUWdXd2ri4kqd3NxpSVY6FcgdAADL0ODaHjRk9hfS/+nRyRTz73/SP9+5Xbul5Y2JuRhG0omTFLVnr1wDgKrVdewY+TNXkIPZMGBbELDgoh73DaDbPXwow1BE9yfGULahZMu07Xk5sl8WTxVsp4Wt33IyKcfkPgBATbpn4ffkX6cO/btkKa168WV1tWzH/lpPHgEBVK9bV2o16DYKatSQTv69SaYNAoD5BTdpTPf/tJi6T3yYXD096eCvq9QdANuAjYahTJFOzrQ9oh45a2+RqamJNDM9Wd0pweHqx+BaFOLkRClFRbIZ8bzM1FJBDACguvV+8Xnq+6rxZ4dvNWtJ8YcOS/9ybnzuGer/+mvS56mD2+bMlb4tcdT+vi4qLFRnANUjrHkzqt2hg3a0p8hOHalOxw6yN13s/gO0YNRoOrP9H/VKANuAgAVl+jgwjIZ6+tDh/Dy6Jva0unqhTq7u9LJfEF2t1mlxuPouM42WZWfQxtxsuQYAUF34AW7yjm3S//X5F+n3N96Ufnnx6FXDa3vQ9q/mqSu2o9Wg22nUkh9o6+wvZVQvPSZG3QG4cgH16lFYi+ZaW1f6wY0baUdjCtJaLjRzvt0LF9GiMeMoLzNTXQGwHQhYcIEb3D3ph+Ba0n8gMYZ+0sLS5Yz19qN7vPyohYurukIUX1hIG3KztCNbNi3O08LX7vxcysUIFwBUkQfXrqYmN/ai01u30Yxu3dVVYC1vvYXu/3mJ9HMzMujgyl8p5r99FK0dmfHxlJmQQBnxCZSVmCivAbgYLh4T2aUz1dWOOp06Uu327eTaxRTk5tKpzVvo1JatcpzWjvTYWHUXwPYgYMEFFofUop5unrQ6J5NGJESrq+XDe2YN9vSmm7SQFuDIS/xKW6+FrcHx59QZAID59Jn6EvV5+UXpf3R1D3mQg9J4qhZPn+SCHhfDBQfSomMoOzmZsrQjNz2dDEVFcjg4OsrBclJTtSNNHpR5NCLx2HG5DraFR5/CW7WUo97VV2tHN3kflYXfAylnzlDK2bOUePQYxR08pB0HUTgG7A4CFpRynZsHLQmpLf1+cWfpnyvY56qbmzt1c/WQMu8B2j/Ibg4OtDo7k6arMu8AAOYydtUKatq3j/QrMzXQ3vCIQ0SbNtrRmkKbNSXf8HDyCQ8jn4gIctD+rq6Mfb8so7m3DVZnYGl43dOdn39aHJDLIv/ttYNf4+Hvpx3+5Objo+6WxlNMZURq8xY6u2OnVOTMSsK/7wAMAQuKuWp/qc4JDKf+Hl5Sen1cEobvAcDy8QPgtJQEeShc+sgk2jjzE3UHKsO3Vi3yjQgn79BQOdz9fMnJ2ZkcXVyML+Bp3tq/FzyywQc/uHNZfF5L87xvoIx0geXpMOJuuvvbr9VZxSSdPEVxBw5Q9N5/6ezOXXRu505KOHpM3QWA8yFggWjo7ELrw+qSu/rJZa/YM7Q3P1f6AACWLrxlC6mOx1OSoPpxcQP+/pe3YiPUjFpt20g4vhh9BIvx1NDctHTK0dp8bFkAUCEIWCAaaAFre3g96V+sLDsAAAAAAFwaAhYU+ygglHhix6TkOOMFAAAAAACoEAQsAAAAAAAAM0HAAgAAAAA4DxcG6TllMjk6OcleXnt/XCxH4vET6hUAZUPAAgAAAAAwwZsoT9y0QcLV+fYuXkJrXn6FYvbtV1cASkPAAgAAAABQXDw9afKObbJHHPvl8SekVH2bOwbJJt3Obm5y/bu776Fd8xdIH8DUxXebAwAAAACwM4H16kq4OvrnOjnn/d7+W/oTfT/yPnq9XiPa/PksuT5k9ueyRQTA+RCwAAAAAACU2AMHaXrjpnRo1Wo55823demxsbT4oYfpn3nfyEhXn1deVncASiBgAQAAAACYSDx2nA6sWCn9qx8aRz7h4dLX/fnWO9LW6dhRWgBTCFgAAAAAAOfhIhZcNZCNWvojufv6Sp+lRUVLG1i/Hrn5+EgfQIeABQAAAABQhh8fmkBnd+yket260gMrl5F/ZKRcbz98qLQHVv5Kuenp0gfQIWABAAAAgM27ZvyD5BkUpM7KJysxkb4adCdF7dlL9btfQw//9QcNnzeXBn8yU+7vnr9QWgBTXNx/qrELAAAAAGB7rnn4IQlFLh4edPDXVepq+eSkpdEuLUjVateWIjt3olpt28j1vz/6uHgtFoApjGABAAAAVLPITh1lr6WO94xUV0DH+0zph5OLi7p6ZVLPnpM2qFFDaSsqJzWVZvcfSJ/ecBMtvH8MLR4/gX569DF1F6A0BCwAAACAahZ81VVUu0N76v3SC+oKsD5TX6I3czKKj7fysqhZv77qbuUlHj8ubVDDygUs3bF1f9H2r+bR5s++UFcALoSABQAAAFDNdn0/n05t3kLBjRvRDU8/qa5C1wdGS1uQkyNHXmYmFeTlybUrkXj8hLRBDRtIC1CVELAAAAAAasDa16dL23WMMVTYOw9/f/KrXZuyk5PpGQ8fOZ7z9qejf/ypXlF5+VlZlJmQQE6urhfsaQVgbghYAAAAADWAN7KNO3iIgps0ppa33qKu2i9HZ2dpCwsKpDW31HNR0vpH1pEWoKogYAEAAADUkO1ffS1t51H3SmvPDAaDtO5VtHFv6jljoQu/OghYULUctMP4bgYAAACAKsfT4Hwjwsm3Vi0KuaoJDXznLVlrtPK5F8jB0ZEctcPByYkcHByKQ4ehqIiKCgqoqLCQk4hcY3sXL6X0mBh1Zv2m7N1FEa1b0czu19HJTZvVVfO498eF1OaOwTT/nlG049vv1FUA80PAAgAAAKhijXvdQK1uv007biX/yEh19cptnTWHfhj3kDqzfrxXFW8IvOLpZ+nPt99VV81jxHfzqP3dw2nxQw/T5s9nqasA5oeABQAAAFCFGl3fk8b/uVadkYw4pcfEUprW5qSkUGSXzlI+/Ow/Oyhqz14ZvXJ0cpTRLB2PZBkKC6mosKjUCBZPMTzx90Z1Zv1aDbqdRi35gZJOnKQ3GjZRV81j6JezqfP999Evjz9B69//UF0FqBr8pxQHDhw4cODAgQNHFRy9X3ze8K4h3/DM4QOGul06X3C/48gRcn/C+j8vuGePx6Rtm+X70W3cA2Xer+wxdO4c+XWvmzypzPs4cJjrQJELAAAAgCr022uv05G1v0u1wL6vTlVXSxxa85u0Da7tQb4REdK3Z3/PmCnt9U8+Ia25OPC8LYBqgIAFAAAAUMW+v2eUbHbbtG8f6jLmfnXVKCMujk5s+Fv6zQb0k7amNb95ADXqeZ06q15cgOLUlq2yCfNNzz9L7YcPk2mWIU2vUq+oJJWwuHgIQFVCwAIAAACoYrzu6vsR99DGjz+lfxcvVVdL6Ouo6nXrJm1leQYGUq9nnqIn/t1Nfaa+JJUKK6rJTTfSmOU/0/h1v9ONzz2jrlavP6a/JW2/aa/SiO+/kTVsTx/cRw/98Rs1H9Bf7lWUHqz0yowAVcVJOy4cqwYAAAAAs0o9e44OrvyVCnJy1JUSHgEB1HbIneTs6kqbPv1MXa0YLv8+eec2aj3odvIODZVRn55TJtOZf3ZQQW4uNe3Tm2L371evLuEVHEz5WVnqjOjeRQu0YGacqtjkxl6yGXLMvn1yXl3iDx2m5NOnKV77vVPPnqWspGRy0r43Ea1bU4cRwyktOprO7tipXl0+rQcPolpt2tDBVavp9Jat6iqA+WEECwAAAKCGRe/dK214q5bk5u0t/Yq6a/bnErL2L1tOcwbeRnsW/UD52dlUmJ9Pd3w6k+5ZNF8Ck6kWtwykV+KjadTSH+U8qFFDqtOxAyWfOkVrX58u12774D3yDAqSfnXaPvdrWvHMc/Tt8JH0Sc9eNC2yAa189nm5d9MLz5GjE48TlF/x1ECMYEEVQ8ACAAAAqGHxh48UjyJxwKmoXs8+Tc369aWkk6do0QMP0oEVK+mboXfTs56+dHjNb5SZkCCvq9Opo7S6NncOlpb36OIRL73IRlp0DK164SWK2r2HfMLDqdu4B+R6TeJNlv948206tXmL7CV23eOPqTsAlgUBCwAAAMACJJ06LW1l1k11nzBe2qUTHpGiGedLOXNW2sjzAlattm1VT2MwFP/e6dHR0m7+/AtpO4+6T1pLsGv+AmlrtW0jbXlhDRZUFwQsAAAAAAughxrvsFBpy6vr2DEyNZAr7x1Y+au6Wpp/ndrStrnzDvKvW1f6LKBupOoZg4f+utQo4+fyz9ffyDTDkKuaSPELSxDzn3E9WESbigUsVBGE6oKABQAAAGABuNIg46ITFVG7fXtp9/64WNqyhDZrpnpUarpfRly86pFMI9TDV+q5c9JyuNq7eIn0r+p9k7Q1LSs5WVonFxdpy0sPVg6OePyFqoV3GAAAAIAFyIg3rpNy9/WVtrz0qXK8XqosXKGwbtcu6oxkb6nGN1wvfX064blduyl2/wHyj6wj52lqBIvtX7ZCWksJWHoVRkdnZ2nLS58a6OrlJS1AVUHAAgAAALAAethx9/WRtrxKQlGUtOdrectAablc+1/vvS/9u2Z/IRv4BtSvJ+cHf10lrR68ovaUhDX9Xu327cjD31/6NakwL09aJ5eKBSw9gIa3bCEtQFVBwAIAAACwAFxJkIU0bSpteZ3euk3ayC4lo1Smmg8cIC3vwbXsiafoyNrfKahhA9nAl6vxMQ5WDXp0l9Eu3mPKdDQsNz1d1ncx05GwmhLavLm0vFdWRfAoHQtr2VJagKqCgAUAAABgAc7tNG6cG9bCGCDKSw9Y10565IIRJi753vauO6W/75dl0n7eux8tmfAIJR47Tkf/+FP2vKp3dTe6/skpcv/Yn+ukNaWvCysqKJD2SvDnw2XhKyuidStpYw8clLa89NDIH8+bFgNUJZ6QigMHDhw4cODAgaOGj6lxUYZ3DfkG/8jIMu+XdTi7uRke2bRBPm7cml8NWqiS6z5hYYZJ27fI9WFff3nBx+nHNeMflNfoR8hVTUrdr9etq1x/+tD+Utcrc7h6eRX/Ps+dOGro+8rLhqCGDcp8bVmHd2ioYXpmqnx88wH9y3zNpQ7+PfljIzt1LPM+DhzmOHgL7KnaAQAAAAA1rN3QIeRbK4J2fPNtcVXBy+ENeA+vWUstbhlIkZ07UbdxYymiTWu6bvJjVLtdWylesWT8BMpKMlbfOx+vzeLy7Vp4oZXPvUD7fv5F3TFKPXuO3Hx8aMe331Hsvv3qauUU5udLsYnA+vUpsEF9atTzOhl545E2Z3d3Sjpxkgpyc9WrSwtpehUNnvkhhbdqKZ/jb6+9ru6UX15mhvwe2778Sl0BMD+uV8lJCwAAAABqGFcE5JLquxcuUlfKj6sP9nvtFerx6ER1hej0tu301aA7L1oAQ8fhhvfE0teBVQeeJtjp3pHUatDt6ooRB76TGzdRZnw8ZaekkIuHB9Xp1FGmFnKJdb72RZ/+dGb7P+ojACwLAhYAAACADanXrSsF1KtHcYcOXbR0uyUJrF+P2g0fJlUN9fVVF7Pnhx/pl8lPFO/TBWCJELAAAAAAwCJwdcMGPXrIlEEXT09y9fSgoqIiOvvPjuKRLQBLh4AFAAAAAABgJijTDgAAAAAAYCYIWAAAAAAAAGaCgAUAAAAAAGAmCFgAAAAAAABmgoAFAAAAAABgJghYAAAAAAAAZoKABQAAAABgIRx4EyWwatgHCwAAAACgmvh5O1CAjyMF+DpSoK8DtWzoTC0aaIfWct/DzYH6PpJMG3bnqY8Aa4OABQAAAABQTk6ORCEBHI5KQpK/Fpj8teDk5621PsaWg5S/Ouf7AVrLr+ePv5zRr6XS3GXZ6gysDQIWAAAAANgtnpIXqgWmsEBHCtWOsEAnaUP8tUO7zveC/BwoWDsP8nOU1tzOxhXS/hMFtO+YdhwvoDm/IFxZMwQsAAAAALBJkWFOVCfUUTu0VutHBDlSuBxOFKa1HKr4qAqpGQZKTC0qPpLSSs5jE4soOrGQohOK6OiZQu1ekfoosAUIWAAAAABgFXy9jNPvjK0D1YtwpsZ1nKh+hBPVCjGGJR5l4il5Pp4OZi0YkZVjkEAUl1xE8drBbWxSoYQl/Vp8ShElqCO/QH0g2B0ELAAAAACoEVzsgUeSTKfomU7N4/NawcZzHy9HcjRjYDpfYRHRnJ+zJCzFJXF4Mh4xWoCKSSyUESmA8kDAAgAAAACz4REkPRxJcFJT8WRanrTGcz7cXKswMSm5eQbKyDZQSnoRJaQaZMSJ1zxFJxRSdi5RQaFBO4j2HilA5T4wCwQsAAAAALgoHmUK9i8p8sCjSTLapEIUn/Ook14cwtlJfWAVy803UHKaQabmnYsvpJPRhXTsbCEdPFlAB7QjSQtTyVqoAqhuCFgAAAAAdsLd1YEC/bTDt6QiHh/6tLzi1qTv4qw+uJoVFhLFJBXSmdgiCU4HThTQsXPaofWPnyuUYhEAlggBCwAAAKCatW3iTO5uDvIgxpycHGTkhw9HR+1wcNCuGc+dtXu8d5KzFnS4z4FHb91cHMjNlchVa73ctcPDeHCBBx9PXrdkLAbB+zFx66m9xpJExWvhSQtNHJg4OB07WyAjUadjjNP4AKwRAhYAAABANeJwtfu7YHVmHfLyDZSZbaA8VRmPR8K4kl95qvTx9L2DJ41T945qIeroGWN7IqpQ1kcB2BoELAAAAIBqxIUdfnnPXwsojiYjWCWjVcYRrNKjWk7aBeMIlrHPI1r8MRxw+Nfglqvg8bQ6bvMLtDCUrwUjreUQk5NHlJNroGzt4HLjfHDhh4wsA6VrR36hQUbDeISLR794CiGvp6ob7iRV/MqDR6F4s1w5jhfQwVPaoYUqVN8De8N/JvGuBwAAALBRHL54w10+aoeoTXdDHalehJMcvIcUr8cqD662d0gFJ2OAMq6N4qISHNoAAAELAAAAwKrxqBOHJAlM4caWR57qhhlHoDhYlWcqn66oiOjYOS4kUUBHzxQWT+s7fLpQO7B7LsDlIGABAAAAWLhGdZyocR1naU3DVP1axr2lKoLLmnMBibNxxvac1p6O5Wp9XFzCWKEPACoPAQsAAADAwsx4wpea1nOiBrWcqWFtJ1lzdSm8jiomsYhiEwspNklrtSNOC1K8qS73Y9R1rtqXg8ISAFUKAQsAAADAgnRo5kI75gWpMyMeXeLy5SejjO0pPmKMo1BR8YWUlonHOQBLgYAFAAAAYGGG3OQuVf54uh4fXCYdAKwDAhYAAAAAAICZVGxVJAAAAAAAAFwUAhYAAAAAAICZIGABAAAAAACYCQIWAAAAAACAmSBgAQAAAAAAmAkCFgAAAAAAgJkgYAEAAAAAAJgJAhYAAAAAAICZIGABAAAAAACYCQIWAAAAAACAmSBgAQAAAAAAmAkCFgAAAAAAgJkgYAEAAAAAAJgJAhYAAAAAAICZIGABAAAAAACYCQIWAAAAAACAWRD9H3j7aFr5M5I7AAAAAElFTkSuQmCC;" vertex="1" parent="1">
          <mxGeometry x="570" y="30" width="856" height="370" as="geometry" />
        </mxCell>
      </root>
    </mxGraphModel>
  </diagram>
</mxfile>
